<svg width="89" height="89" viewBox="0 0 89 89" fill="none" xmlns="http://www.w3.org/2000/svg">
<path d="M40.9356 22.752V31.3174C40.9356 32.4788 39.9939 33.4204 38.8325 33.4204C34.6878 33.4204 32.4334 37.6711 32.121 46.0611H38.8325C39.9939 46.0611 40.9356 47.0036 40.9356 48.1642V66.249C40.9356 67.4104 39.9939 68.352 38.8325 68.352H20.9382C19.7758 68.352 18.8351 67.4095 18.8351 66.249V48.1642C18.8351 44.1423 19.24 40.4514 20.0384 37.1931C20.8572 33.8521 22.1138 30.9311 23.7728 28.5103C25.4798 26.0227 27.6149 24.071 30.1194 22.7111C32.6408 21.3431 35.5724 20.6489 38.8334 20.6489C39.9939 20.6489 40.9356 21.5905 40.9356 22.752ZM68.0619 33.4204C69.2233 33.4204 70.1649 32.4779 70.1649 31.3174V22.752C70.1649 21.5905 69.2233 20.6489 68.0619 20.6489C64.8018 20.6489 61.8701 21.3431 59.3488 22.7111C56.8443 24.071 54.7083 26.0227 53.0013 28.5103C51.3423 30.9311 50.0857 33.8521 49.2669 37.194C48.4694 40.4532 48.0645 44.144 48.0645 48.1642V66.249C48.0645 67.4104 49.0061 68.352 50.1675 68.352H68.061C69.2224 68.352 70.1641 67.4095 70.1641 66.249V48.1642C70.1641 47.0027 69.2224 46.0611 68.061 46.0611H61.4456C61.7536 37.6711 63.975 33.4204 68.0619 33.4204Z" fill="#DCE7E9"/>
</svg>
