<svg width="14" height="14" viewBox="0 0 14 14" fill="none" xmlns="http://www.w3.org/2000/svg">
<g clip-path="url(#clip0_38_690)">
<path d="M13.7445 12.5064L11.0302 9.79299C11.6112 9.01604 11.9993 8.1122 12.1626 7.15589C12.3259 6.19958 12.2597 5.21817 11.9694 4.29246C11.6792 3.36675 11.1732 2.52323 10.4931 1.83136C9.81302 1.13949 8.97833 0.619064 8.05774 0.312934C7.13716 0.00680371 6.15703 -0.076272 5.19806 0.0705478C4.23908 0.217368 3.3287 0.589883 2.54188 1.15742C1.75506 1.72495 1.1143 2.47127 0.672377 3.33492C0.230453 4.19857 1.65307e-06 5.15484 0 6.12499C-1.44837e-06 7.26173 0.316336 8.37605 0.913612 9.34324C1.51089 10.3104 2.36553 11.0923 3.3819 11.6014C4.39827 12.1105 5.53627 12.3267 6.66852 12.2258C7.80078 12.125 8.88263 11.711 9.793 11.0302L12.5055 13.7427C12.5867 13.8241 12.6831 13.8887 12.7892 13.9328C12.8954 13.9769 13.0091 13.9996 13.1241 13.9997C13.239 13.9999 13.3528 13.9773 13.4591 13.9335C13.5653 13.8896 13.6618 13.8252 13.7432 13.7441C13.8245 13.6629 13.8891 13.5665 13.9332 13.4603C13.9773 13.3542 14.0001 13.2404 14.0002 13.1255C14.0003 13.0106 13.9778 12.8967 13.9339 12.7905C13.89 12.6843 13.8257 12.5877 13.7445 12.5064ZM6.125 10.4991C5.54532 10.5073 4.96979 10.4002 4.43186 10.1841C3.89392 9.96789 3.40432 9.64697 2.99149 9.23994C2.57866 8.83291 2.25085 8.34789 2.0271 7.81307C1.80335 7.27825 1.68813 6.70429 1.68813 6.12455C1.68813 5.54481 1.80335 4.97085 2.0271 4.43603C2.25085 3.90121 2.57866 3.41619 2.99149 3.00916C3.40432 2.60213 3.89392 2.28121 4.43186 2.06505C4.96979 1.84889 5.54532 1.74179 6.125 1.74999C7.28532 1.74999 8.39812 2.21093 9.21859 3.0314C10.0391 3.85187 10.5 4.96467 10.5 6.12499C10.5 7.28531 10.0391 8.39811 9.21859 9.21858C8.39812 10.0391 7.28532 10.5 6.125 10.5V10.4991Z" fill="#4E4E4E"/>
</g>
<defs>
<clipPath id="clip0_38_690">
<rect width="14" height="14" fill="white"/>
</clipPath>
</defs>
</svg>
