<svg width="180" height="62" viewBox="0 0 180 62" fill="none" xmlns="http://www.w3.org/2000/svg">
<path d="M14.34 47.56C14.84 46.58 15.22 45.57 15.48 44.53L18.09 45.67C16.27 51.21 12.72 55.2 7.44 57.64L5.61 54.55C7.43 53.73 8.96 52.89 10.2 52.03C11.46 51.17 12.5 50.21 13.32 49.15H11.37V42.85H7.26V41.11L5.04 43.81C4.42 43.17 3.66 42.43 2.76 41.59C1.86 40.75 1.14 40.11 0.6 39.67L2.85 36.97C4.75 38.61 6.22 39.92 7.26 40.9V39.73H8.37V34.36L6.33 37C4.41 35.18 2.94 33.86 1.92 33.04L4.08 30.34C5.36 31.36 6.79 32.58 8.37 34V32.5H10.89V39.73H12.06V30.1H14.85V33.67H16.98V36.7H14.85V39.73H17.43V42.85H14.34V47.56ZM27.03 57.46C26.39 56.6 24.98 54.97 22.8 52.57C22.32 53.47 21.65 54.33 20.79 55.15C19.95 55.97 18.87 56.83 17.55 57.73L15.69 54.73C16.97 54.03 18 53.37 18.78 52.75C19.56 52.13 20.16 51.48 20.58 50.8H18.09V36.64H20.97L21.45 34.27H17.97V31.18H28.26V34.27H24.42C24.36 34.55 24.3 34.82 24.24 35.08C24.18 35.32 24.13 35.54 24.09 35.74L23.88 36.64H27.75V50.8H25.35L29.22 54.97L27.03 57.46ZM21.69 40.72H24.12V46.15C24.12 47.33 24.05 48.37 23.91 49.27L25.14 50.56V39.73H20.67V50.65C21.05 49.99 21.31 49.26 21.45 48.46C21.61 47.64 21.69 46.63 21.69 45.43V40.72ZM6.15 49.48C6.69 48.64 7.22 47.67 7.74 46.57C8.26 45.47 8.7 44.43 9.06 43.45L11.37 44.56C11.05 45.56 10.6 46.68 10.02 47.92C9.46 49.16 8.86 50.29 8.22 51.31L6.06 49.87C5.48 52.29 4.86 54.71 4.2 57.13L1.05 56.14C2.25 52.4 3.21 48.75 3.93 45.19L6.93 46.09C6.73 47.11 6.47 48.24 6.15 49.48ZM58.41 36.79V40.09H38.31V43.78C38.31 46.92 38.01 49.53 37.41 51.61C36.83 53.69 35.82 55.74 34.38 57.76L31.29 55.42C32.33 54.04 33.08 52.84 33.54 51.82C34.02 50.78 34.34 49.66 34.5 48.46C34.66 47.24 34.74 45.57 34.74 43.45V40.39L33.12 41.62L31.02 38.62C34.92 35.96 37.94 32.88 40.08 29.38L43.77 30.1C43.61 30.42 43.35 30.88 42.99 31.48H54.51V34.3C54.19 34.66 53.37 35.49 52.05 36.79H58.41ZM40.68 34.66C39.98 35.5 39.34 36.21 38.76 36.79H47.31C47.31 36.79 47.87 36.23 48.99 35.11L49.44 34.66H40.68ZM54.75 49.36L58.32 50.32C58.3 51.06 58.21 52.07 58.05 53.35C57.95 54.33 57.76 55.05 57.48 55.51C57.2 55.99 56.77 56.33 56.19 56.53C55.61 56.73 54.73 56.87 53.55 56.95C51.85 57.05 50.3 57.1 48.9 57.1C47.54 57.1 45.99 57.05 44.25 56.95C43.13 56.87 42.26 56.7 41.64 56.44C41.02 56.2 40.57 55.78 40.29 55.18C40.01 54.6 39.87 53.76 39.87 52.66V42.01H55.08C55.04 43.49 54.93 45.35 54.75 47.59C54.61 49.03 54.21 50.05 53.55 50.65C52.91 51.25 51.82 51.55 50.28 51.55C48.84 51.55 47.59 51.5 46.53 51.4L45.87 48.16C47.59 48.32 48.85 48.4 49.65 48.4C50.13 48.4 50.46 48.32 50.64 48.16C50.84 47.98 50.99 47.64 51.09 47.14C51.19 46.4 51.26 45.75 51.3 45.19H43.62V51.88C43.62 52.6 43.72 53.07 43.92 53.29C44.14 53.51 44.59 53.64 45.27 53.68C46.61 53.78 47.81 53.83 48.87 53.83C49.93 53.83 51.13 53.78 52.47 53.68C53.03 53.64 53.44 53.57 53.7 53.47C53.98 53.37 54.18 53.2 54.3 52.96C54.42 52.72 54.51 52.35 54.57 51.85L54.75 49.36ZM88.2 34.93C88.18 37.83 88.12 41.04 88.02 44.56C87.92 48.08 87.78 50.85 87.6 52.87C87.5 53.91 87.32 54.72 87.06 55.3C86.8 55.88 86.39 56.3 85.83 56.56C85.29 56.84 84.55 57 83.61 57.04C82.37 57.08 81.23 57.03 80.19 56.89L79.47 53.26C80.61 53.46 81.6 53.56 82.44 53.56C83.1 53.56 83.55 53.4 83.79 53.08C84.03 52.74 84.2 52.08 84.3 51.1C84.46 49.56 84.57 47.61 84.63 45.25C84.71 42.87 84.75 40.62 84.75 38.5H81.45C81.29 42.24 81.07 45.11 80.79 47.11C80.53 49.09 80.04 50.89 79.32 52.51C78.62 54.13 77.51 55.9 75.99 57.82L72.87 55.63C73.61 54.77 74.21 54.01 74.67 53.35L72.57 54.43L72.06 52.99C68.18 53.87 65.3 54.5 63.42 54.88C62.84 54.98 62.36 55.09 61.98 55.21L60.96 51.55C61.34 51.39 61.6 51.22 61.74 51.04C61.9 50.86 62.07 50.6 62.25 50.26C62.57 49.68 63 48.63 63.54 47.11C64.1 45.59 64.61 44.08 65.07 42.58H61.2V39.16H74.61V42.58H68.85C68.43 43.96 67.9 45.5 67.26 47.2C66.64 48.9 66.13 50.17 65.73 51.01L67.56 50.62L70.89 49.87C70.31 48.41 69.75 47.09 69.21 45.91L72.27 44.77C72.99 46.31 74.02 48.82 75.36 52.3C76 51.22 76.5 50.09 76.86 48.91C77.22 47.71 77.48 46.31 77.64 44.71C77.82 43.11 77.96 41.04 78.06 38.5H74.91V34.93H78.18L78.3 29.71H81.66C81.66 31.11 81.63 32.85 81.57 34.93H88.2ZM62.43 31.42H73.8V34.87H62.43V31.42ZM118.32 33.94C118.3 36.94 118.22 40.13 118.08 43.51C117.94 46.87 117.75 49.84 117.51 52.42C117.37 53.96 116.97 55.06 116.31 55.72C115.67 56.4 114.71 56.76 113.43 56.8C112.41 56.82 111.26 56.78 109.98 56.68L109.38 53.41C110.62 53.55 111.67 53.61 112.53 53.59C113.19 53.57 113.63 53.38 113.85 53.02C114.09 52.66 114.27 51.96 114.39 50.92C114.61 48.86 114.78 46.59 114.9 44.11C115.04 41.63 115.11 39.3 115.11 37.12H113.94C113.54 40.3 113.05 42.96 112.47 45.1C111.91 47.22 111.06 49.23 109.92 51.13C108.8 53.01 107.24 54.91 105.24 56.83L102.75 54.4C104.57 52.78 106.04 51.1 107.16 49.36C108.3 47.6 109.18 45.75 109.8 43.81C110.42 41.87 110.91 39.64 111.27 37.12H109.59C109.03 40.28 108.26 42.92 107.28 45.04C106.3 47.14 104.81 49.22 102.81 51.28L100.44 48.94C102.2 47.26 103.58 45.48 104.58 43.6C105.58 41.7 106.34 39.54 106.86 37.12H105.54C104.86 38.64 104 40.23 102.96 41.89L100.41 40.09C100.65 39.77 100.85 39.45 101.01 39.13H99.15V43.45C100.45 42.95 101.25 42.64 101.55 42.52L101.85 45.97L99.15 47.08V57.4H95.88V48.4L92.04 49.96L91.05 46.42C91.73 46.22 93.34 45.64 95.88 44.68V39.13H94.38C94.16 41.05 93.93 42.58 93.69 43.72L90.72 43.15C91.12 41.43 91.44 39.62 91.68 37.72C91.94 35.82 92.11 33.99 92.19 32.23L94.95 32.44C94.91 32.96 94.83 34.04 94.71 35.68H96.12V29.77H99.15V35.68H101.43V38.44C102.89 35.8 104.09 32.78 105.03 29.38L108.12 30.16C107.66 31.74 107.25 33 106.89 33.94H118.32ZM122.4 57.55V30.76H147.57V57.55H144.21V56.35H125.79V57.55H122.4ZM125.79 53.23H144.21V33.91H125.79V53.23ZM137.94 41.62C139.34 42.1 141.33 42.61 143.91 43.15L142.71 46.06C139.35 45.16 136.76 44.25 134.94 43.33C133.88 43.85 132.84 44.29 131.82 44.65C132.3 44.75 133.72 45.04 136.08 45.52C137.22 45.72 138.35 45.94 139.47 46.18L139.05 48.79C138.19 48.59 135.64 48.08 131.4 47.26L130.47 47.08L130.83 45.04C129.47 45.52 128.24 45.93 127.14 46.27L125.94 43.45C128.36 42.83 130.4 42.19 132.06 41.53C131.2 40.87 130.49 40.25 129.93 39.67C129.29 40.27 128.55 40.89 127.71 41.53L125.97 39.4C127.91 37.94 129.59 36.17 131.01 34.09L133.86 34.72C133.7 34.96 133.56 35.17 133.44 35.35C133.32 35.53 133.21 35.69 133.11 35.83H142.35V38.2C140.71 39.66 139.24 40.8 137.94 41.62ZM132.12 38.2C132.86 38.92 133.79 39.61 134.91 40.27C136.13 39.65 137.18 38.96 138.06 38.2H132.12ZM128.49 48.13L130.74 48.55C135.8 49.53 139.18 50.2 140.88 50.56L140.4 53.23C138.2 52.77 134.1 51.96 128.1 50.8L128.49 48.13ZM168.24 35.17C167.58 36.19 166.87 37.14 166.11 38.02L163.14 36.13C164.06 35.09 164.88 33.99 165.6 32.83C166.32 31.67 166.91 30.53 167.37 29.41L170.97 30.07C170.71 30.69 170.39 31.37 170.01 32.11H178.44V35.17H172.2L173.13 35.95C174.73 37.33 175.73 38.19 176.13 38.53L173.94 40.81C172.28 39.23 170.78 37.89 169.44 36.79L170.94 35.17H168.24ZM173.37 50.92L172.68 53.86H178.23V56.77H151.83V53.86H157.29C157.01 52.84 156.71 51.86 156.39 50.92H153.6V48.1H163.2V46.57H158.43V45.04C156.37 45.86 154.27 46.56 152.13 47.14L150.96 43.99C155.54 42.91 159.22 41.46 162 39.64H159.09V29.83H162.51V39.28C162.91 39 163.28 38.72 163.62 38.44H166.35C167.83 39.66 169.55 40.69 171.51 41.53C173.49 42.37 175.98 43.13 178.98 43.81L177.9 46.99C175.5 46.33 173.37 45.64 171.51 44.92V46.57H166.77V48.1H176.4V50.92H173.37ZM152.94 30.58H156.3V39.88H152.94V30.58ZM165.03 41.53C163.99 42.27 162.66 43.05 161.04 43.87H169.11C167.51 43.13 166.15 42.35 165.03 41.53ZM159.51 50.92L160.41 53.86H163.2V50.92H159.51ZM166.77 50.92V53.86H169.53C169.79 52.9 170.02 51.92 170.22 50.92H166.77Z" fill="#4E4E4E"/>
<path d="M9.342 11.438H3.996V14.714H10.17V17H1.386V3.824H9.972V6.092H3.996V9.188H9.342V11.438ZM17.4672 7.442C18.4992 7.442 19.3152 7.784 19.9152 8.468C20.5152 9.14 20.8152 10.124 20.8152 11.42V17H18.3132V12.23C18.3132 10.526 17.7492 9.674 16.6212 9.674C16.0212 9.674 15.5352 9.908 15.1632 10.376C14.8032 10.832 14.6232 11.48 14.6232 12.32V17H12.1212V7.676H14.3172C14.3772 8.408 14.4312 8.906 14.4792 9.17C15.0792 8.018 16.0752 7.442 17.4672 7.442ZM29.4645 3.302H31.9665V17H29.7705C29.7105 16.304 29.6625 15.836 29.6265 15.596C29.3025 16.136 28.8765 16.544 28.3485 16.82C27.8325 17.084 27.2685 17.216 26.6565 17.216C25.8885 17.216 25.1865 17.024 24.5505 16.64C23.9145 16.256 23.4045 15.698 23.0205 14.966C22.6365 14.222 22.4445 13.346 22.4445 12.338C22.4445 11.318 22.6365 10.442 23.0205 9.71C23.4045 8.966 23.9145 8.402 24.5505 8.018C25.1865 7.634 25.8885 7.442 26.6565 7.442C27.2205 7.442 27.7425 7.556 28.2225 7.784C28.7145 8.012 29.1285 8.36 29.4645 8.828V3.302ZM27.2325 15.074C27.8565 15.074 28.3845 14.846 28.8165 14.39C29.2485 13.934 29.4645 13.25 29.4645 12.338C29.4645 11.438 29.2485 10.772 28.8165 10.34C28.3845 9.896 27.8565 9.674 27.2325 9.674C26.5725 9.674 26.0385 9.908 25.6305 10.376C25.2345 10.844 25.0365 11.498 25.0365 12.338C25.0365 13.178 25.2345 13.844 25.6305 14.336C26.0385 14.828 26.5725 15.074 27.2325 15.074ZM38.2468 7.442C39.5068 7.442 40.4908 7.802 41.1988 8.522C41.9068 9.23 42.2608 10.244 42.2608 11.564V17H40.1548C40.1428 16.904 40.1248 16.748 40.1008 16.532C40.0888 16.304 40.0648 16.106 40.0288 15.938C39.7528 16.37 39.3928 16.694 38.9488 16.91C38.5168 17.114 37.9888 17.216 37.3648 17.216C36.7168 17.216 36.1228 17.102 35.5828 16.874C35.0548 16.646 34.6348 16.316 34.3228 15.884C34.0108 15.44 33.8548 14.918 33.8548 14.318C33.8548 13.694 34.0288 13.154 34.3768 12.698C34.7368 12.23 35.2168 11.87 35.8168 11.618C36.4168 11.366 37.0768 11.24 37.7968 11.24C38.4448 11.24 39.1108 11.348 39.7948 11.564C39.7588 10.184 39.1708 9.494 38.0308 9.494C37.1188 9.494 36.4528 9.902 36.0328 10.718L34.2508 9.692C34.5868 8.996 35.1028 8.45 35.7988 8.054C36.4948 7.646 37.3108 7.442 38.2468 7.442ZM39.7948 13.22C39.1948 13.076 38.6728 13.004 38.2288 13.004C37.6408 13.004 37.1848 13.112 36.8608 13.328C36.5368 13.532 36.3748 13.826 36.3748 14.21C36.3748 14.558 36.5008 14.828 36.7528 15.02C37.0168 15.212 37.3528 15.308 37.7608 15.308C38.3008 15.308 38.7748 15.158 39.1828 14.858C39.5908 14.546 39.7948 14.12 39.7948 13.58V13.22ZM49.8109 7.442C50.8429 7.442 51.6589 7.784 52.2589 8.468C52.8589 9.14 53.1589 10.124 53.1589 11.42V17H50.6569V12.23C50.6569 10.526 50.0929 9.674 48.9649 9.674C48.3649 9.674 47.8789 9.908 47.5069 10.376C47.1469 10.832 46.9669 11.48 46.9669 12.32V17H44.4649V7.676H46.6609C46.7209 8.408 46.7749 8.906 46.8229 9.17C47.4229 8.018 48.4189 7.442 49.8109 7.442ZM64.3102 7.676V16.046C64.3102 17.93 63.8362 19.292 62.8882 20.132C61.9402 20.972 60.7642 21.392 59.3602 21.392C58.3402 21.392 57.4402 21.176 56.6602 20.744C55.8922 20.312 55.3462 19.712 55.0222 18.944L56.9482 17.846C57.4162 18.746 58.2202 19.196 59.3602 19.196C60.2482 19.196 60.8722 18.932 61.2322 18.404C61.6042 17.888 61.7962 17.048 61.8082 15.884C61.1842 16.772 60.2842 17.216 59.1082 17.216C58.3522 17.216 57.6442 17.024 56.9842 16.64C56.3242 16.244 55.7902 15.68 55.3822 14.948C54.9862 14.204 54.7882 13.334 54.7882 12.338C54.7882 11.33 54.9862 10.46 55.3822 9.728C55.7902 8.984 56.3242 8.42 56.9842 8.036C57.6442 7.64 58.3522 7.442 59.1082 7.442C59.7202 7.442 60.2722 7.574 60.7642 7.838C61.2562 8.102 61.6582 8.504 61.9702 9.044C62.0542 8.552 62.1022 8.096 62.1142 7.676H64.3102ZM59.5762 15.074C60.2002 15.074 60.7282 14.846 61.1602 14.39C61.5922 13.934 61.8082 13.25 61.8082 12.338C61.8082 11.438 61.5922 10.772 61.1602 10.34C60.7282 9.896 60.2002 9.674 59.5762 9.674C58.9162 9.674 58.3822 9.908 57.9742 10.376C57.5782 10.844 57.3802 11.498 57.3802 12.338C57.3802 13.178 57.5782 13.844 57.9742 14.336C58.3822 14.828 58.9162 15.074 59.5762 15.074ZM70.7006 7.442C71.5286 7.442 72.2606 7.628 72.8966 8C73.5446 8.36 74.0426 8.876 74.3906 9.548C74.7506 10.208 74.9306 10.97 74.9306 11.834C74.9306 12.218 74.8946 12.608 74.8226 13.004H68.6306C68.7386 13.7 68.9906 14.228 69.3866 14.588C69.7826 14.936 70.2746 15.11 70.8626 15.11C71.2826 15.11 71.6546 15.02 71.9786 14.84C72.3146 14.648 72.5726 14.366 72.7526 13.994L74.5886 15.074C74.3366 15.758 73.8506 16.286 73.1306 16.658C72.4226 17.03 71.6306 17.216 70.7546 17.216C69.9146 17.216 69.1346 17.03 68.4146 16.658C67.6946 16.286 67.1126 15.728 66.6686 14.984C66.2366 14.24 66.0206 13.346 66.0206 12.302C66.0206 11.27 66.2366 10.388 66.6686 9.656C67.1126 8.924 67.6886 8.372 68.3966 8C69.1046 7.628 69.8726 7.442 70.7006 7.442ZM70.6286 9.476C70.1366 9.476 69.7166 9.632 69.3686 9.944C69.0206 10.256 68.7866 10.694 68.6666 11.258H72.3746C72.3266 10.682 72.1406 10.244 71.8166 9.944C71.5046 9.632 71.1086 9.476 70.6286 9.476ZM81.5302 7.442C81.8902 7.442 82.2262 7.496 82.5382 7.604C82.8502 7.712 83.0902 7.85 83.2582 8.018L82.2862 9.944C81.9742 9.728 81.6202 9.62 81.2242 9.62C80.5762 9.62 80.0542 9.89 79.6582 10.43C79.2742 10.97 79.0822 11.714 79.0822 12.662V17H76.5802V7.676H78.7762C78.8362 8.396 78.8902 8.888 78.9382 9.152C79.2142 8.588 79.5742 8.162 80.0182 7.874C80.4622 7.586 80.9662 7.442 81.5302 7.442ZM87.8393 7.442C88.6673 7.442 89.3993 7.628 90.0353 8C90.6833 8.36 91.1813 8.876 91.5293 9.548C91.8893 10.208 92.0693 10.97 92.0693 11.834C92.0693 12.218 92.0333 12.608 91.9613 13.004H85.7693C85.8773 13.7 86.1293 14.228 86.5253 14.588C86.9213 14.936 87.4133 15.11 88.0013 15.11C88.4213 15.11 88.7933 15.02 89.1173 14.84C89.4533 14.648 89.7113 14.366 89.8913 13.994L91.7273 15.074C91.4753 15.758 90.9893 16.286 90.2693 16.658C89.5613 17.03 88.7693 17.216 87.8933 17.216C87.0533 17.216 86.2733 17.03 85.5533 16.658C84.8333 16.286 84.2513 15.728 83.8073 14.984C83.3753 14.24 83.1593 13.346 83.1593 12.302C83.1593 11.27 83.3753 10.388 83.8073 9.656C84.2513 8.924 84.8273 8.372 85.5353 8C86.2433 7.628 87.0113 7.442 87.8393 7.442ZM87.7673 9.476C87.2753 9.476 86.8553 9.632 86.5073 9.944C86.1593 10.256 85.9253 10.694 85.8053 11.258H89.5133C89.4653 10.682 89.2793 10.244 88.9553 9.944C88.6433 9.632 88.2473 9.476 87.7673 9.476ZM100.199 3.302H102.701V17H100.505C100.445 16.304 100.397 15.836 100.361 15.596C100.037 16.136 99.6108 16.544 99.0828 16.82C98.5668 17.084 98.0028 17.216 97.3908 17.216C96.6228 17.216 95.9208 17.024 95.2848 16.64C94.6488 16.256 94.1388 15.698 93.7548 14.966C93.3708 14.222 93.1788 13.346 93.1788 12.338C93.1788 11.318 93.3708 10.442 93.7548 9.71C94.1388 8.966 94.6488 8.402 95.2848 8.018C95.9208 7.634 96.6228 7.442 97.3908 7.442C97.9548 7.442 98.4768 7.556 98.9568 7.784C99.4488 8.012 99.8628 8.36 100.199 8.828V3.302ZM97.9668 15.074C98.5908 15.074 99.1188 14.846 99.5508 14.39C99.9828 13.934 100.199 13.25 100.199 12.338C100.199 11.438 99.9828 10.772 99.5508 10.34C99.1188 9.896 98.5908 9.674 97.9668 9.674C97.3068 9.674 96.7728 9.908 96.3648 10.376C95.9688 10.844 95.7708 11.498 95.7708 12.338C95.7708 13.178 95.9688 13.844 96.3648 14.336C96.7728 14.828 97.3068 15.074 97.9668 15.074ZM113.833 7.442C115.093 7.442 116.077 7.802 116.785 8.522C117.493 9.23 117.847 10.244 117.847 11.564V17H115.741C115.729 16.904 115.711 16.748 115.687 16.532C115.675 16.304 115.651 16.106 115.615 15.938C115.339 16.37 114.979 16.694 114.535 16.91C114.103 17.114 113.575 17.216 112.951 17.216C112.303 17.216 111.709 17.102 111.169 16.874C110.641 16.646 110.221 16.316 109.909 15.884C109.597 15.44 109.441 14.918 109.441 14.318C109.441 13.694 109.615 13.154 109.963 12.698C110.323 12.23 110.803 11.87 111.403 11.618C112.003 11.366 112.663 11.24 113.383 11.24C114.031 11.24 114.697 11.348 115.381 11.564C115.345 10.184 114.757 9.494 113.617 9.494C112.705 9.494 112.039 9.902 111.619 10.718L109.837 9.692C110.173 8.996 110.689 8.45 111.385 8.054C112.081 7.646 112.897 7.442 113.833 7.442ZM115.381 13.22C114.781 13.076 114.259 13.004 113.815 13.004C113.227 13.004 112.771 13.112 112.447 13.328C112.123 13.532 111.961 13.826 111.961 14.21C111.961 14.558 112.087 14.828 112.339 15.02C112.603 15.212 112.939 15.308 113.347 15.308C113.887 15.308 114.361 15.158 114.769 14.858C115.177 14.546 115.381 14.12 115.381 13.58V13.22ZM125.397 7.442C126.429 7.442 127.245 7.784 127.845 8.468C128.445 9.14 128.745 10.124 128.745 11.42V17H126.243V12.23C126.243 10.526 125.679 9.674 124.551 9.674C123.951 9.674 123.465 9.908 123.093 10.376C122.733 10.832 122.553 11.48 122.553 12.32V17H120.051V7.676H122.247C122.307 8.408 122.361 8.906 122.409 9.17C123.009 8.018 124.005 7.442 125.397 7.442ZM132.138 6.488C131.742 6.488 131.394 6.338 131.094 6.038C130.806 5.726 130.662 5.366 130.662 4.958C130.662 4.538 130.806 4.178 131.094 3.878C131.382 3.578 131.73 3.428 132.138 3.428C132.546 3.428 132.9 3.584 133.2 3.896C133.5 4.196 133.65 4.55 133.65 4.958C133.65 5.366 133.5 5.726 133.2 6.038C132.9 6.338 132.546 6.488 132.138 6.488ZM133.416 17H130.914V7.676H133.416V17ZM146.225 7.442C147.125 7.442 147.857 7.784 148.421 8.468C148.985 9.14 149.267 10.112 149.267 11.384V17H146.819V12.23C146.819 10.526 146.345 9.674 145.397 9.674C144.881 9.674 144.467 9.908 144.155 10.376C143.855 10.844 143.705 11.492 143.705 12.32V17H141.275V12.23C141.275 10.526 140.801 9.674 139.853 9.674C139.337 9.674 138.929 9.908 138.629 10.376C138.329 10.844 138.179 11.492 138.179 12.32V17H135.731V7.676H137.873C137.933 8.36 137.981 8.816 138.017 9.044C138.629 7.976 139.517 7.442 140.681 7.442C141.305 7.442 141.851 7.604 142.319 7.928C142.787 8.252 143.141 8.732 143.381 9.368C143.681 8.708 144.077 8.222 144.569 7.91C145.061 7.598 145.613 7.442 146.225 7.442ZM155.405 7.442C156.665 7.442 157.649 7.802 158.357 8.522C159.065 9.23 159.419 10.244 159.419 11.564V17H157.313C157.301 16.904 157.283 16.748 157.259 16.532C157.247 16.304 157.223 16.106 157.187 15.938C156.911 16.37 156.551 16.694 156.107 16.91C155.675 17.114 155.147 17.216 154.523 17.216C153.875 17.216 153.281 17.102 152.741 16.874C152.213 16.646 151.793 16.316 151.481 15.884C151.169 15.44 151.013 14.918 151.013 14.318C151.013 13.694 151.187 13.154 151.535 12.698C151.895 12.23 152.375 11.87 152.975 11.618C153.575 11.366 154.235 11.24 154.955 11.24C155.603 11.24 156.269 11.348 156.953 11.564C156.917 10.184 156.329 9.494 155.189 9.494C154.277 9.494 153.611 9.902 153.191 10.718L151.409 9.692C151.745 8.996 152.261 8.45 152.957 8.054C153.653 7.646 154.469 7.442 155.405 7.442ZM156.953 13.22C156.353 13.076 155.831 13.004 155.387 13.004C154.799 13.004 154.343 13.112 154.019 13.328C153.695 13.532 153.533 13.826 153.533 14.21C153.533 14.558 153.659 14.828 153.911 15.02C154.175 15.212 154.511 15.308 154.919 15.308C155.459 15.308 155.933 15.158 156.341 14.858C156.749 14.546 156.953 14.12 156.953 13.58V13.22ZM164.125 17H161.623V3.302H164.125V17ZM173.352 14.228C173.352 15.152 172.992 15.884 172.272 16.424C171.564 16.952 170.64 17.216 169.5 17.216C168.516 17.216 167.664 17.006 166.944 16.586C166.236 16.166 165.756 15.584 165.504 14.84L167.322 13.778C167.502 14.222 167.784 14.57 168.168 14.822C168.552 15.062 169.002 15.182 169.518 15.182C169.902 15.182 170.208 15.11 170.436 14.966C170.664 14.822 170.778 14.618 170.778 14.354C170.778 14.054 170.628 13.826 170.328 13.67C170.028 13.502 169.56 13.328 168.924 13.148C168.288 12.956 167.766 12.77 167.358 12.59C166.962 12.41 166.614 12.152 166.314 11.816C166.026 11.468 165.882 11.018 165.882 10.466C165.882 9.842 166.05 9.302 166.386 8.846C166.734 8.39 167.196 8.042 167.772 7.802C168.348 7.562 168.978 7.442 169.662 7.442C170.598 7.442 171.39 7.646 172.038 8.054C172.686 8.45 173.094 8.978 173.262 9.638L171.444 10.664C171.084 9.884 170.478 9.494 169.626 9.494C169.266 9.494 168.978 9.566 168.762 9.71C168.546 9.842 168.438 10.034 168.438 10.286C168.438 10.574 168.582 10.796 168.87 10.952C169.158 11.096 169.608 11.252 170.22 11.42C170.868 11.6 171.402 11.78 171.822 11.96C172.242 12.14 172.602 12.416 172.902 12.788C173.202 13.148 173.352 13.628 173.352 14.228Z" fill="#4E4E4E"/>
</svg>
