<svg width="60" height="62" viewBox="0 0 60 62" fill="none" xmlns="http://www.w3.org/2000/svg">
<path d="M8.61 35.8C9.63 34.78 10.48 33.76 11.16 32.74C11.84 31.72 12.46 30.58 13.02 29.32L16.47 30.19L15.84 31.63H27.99V34.6C27.75 34.88 27.14 35.6 26.16 36.76C26.06 36.86 25.66 37.33 24.96 38.17L22.11 36.85L24.03 34.54H20.01L19.92 35.17C19.84 35.75 19.79 36.06 19.77 36.1L19.59 36.79C20.39 37.61 21.52 38.31 22.98 38.89C24.46 39.45 26.41 39.94 28.83 40.36L27.3 43.57C24.92 43.01 22.99 42.4 21.51 41.74C20.05 41.08 18.88 40.31 18 39.43C17.16 40.33 16.03 41.11 14.61 41.77C13.19 42.43 11.42 43.02 9.3 43.54L7.89 40.63C10.67 39.97 12.66 39.29 13.86 38.59C15.06 37.89 15.79 37.07 16.05 36.13C16.09 36.01 16.2 35.48 16.38 34.54H14.1C13.28 35.68 12.36 36.78 11.34 37.84L8.61 35.8ZM7.29 35.68C6.59 35.14 5.75 34.54 4.77 33.88C3.79 33.22 2.94 32.69 2.22 32.29L3.99 29.62C4.77 30.04 5.68 30.58 6.72 31.24C7.78 31.88 8.59 32.41 9.15 32.83L7.29 35.68ZM9.21 38.62C7.07 40.36 4.93 41.99 2.79 43.51L1.05 40.63C1.93 40.03 2.97 39.28 4.17 38.38C5.39 37.48 6.42 36.69 7.26 36.01L9.21 38.62ZM25.2 43.6V51.94H21.63V46.66H8.43V51.94H4.92V43.6H25.2ZM16.95 48.94C16.89 49.58 16.77 50.15 16.59 50.65C18.31 51.21 20.28 51.88 22.5 52.66C24.74 53.44 26.6 54.11 28.08 54.67L26.58 57.82C25.28 57.26 23.44 56.5 21.06 55.54C18.68 54.6 16.64 53.81 14.94 53.17C13.94 54.07 12.52 54.87 10.68 55.57C8.84 56.29 6.4 57 3.36 57.7L1.68 54.46C4.66 53.88 6.95 53.3 8.55 52.72C10.15 52.14 11.26 51.55 11.88 50.95C12.5 50.35 12.88 49.66 13.02 48.88C13.1 48.24 13.15 47.77 13.17 47.47H17.07L16.95 48.94ZM35.91 37.57C35.31 36.71 34.59 35.73 33.75 34.63C32.93 33.51 32.27 32.66 31.77 32.08L34.62 29.92C35.7 31.14 37.12 32.93 38.88 35.29L35.91 37.57ZM59.4 48.76C59.24 50.26 59.01 51.83 58.71 53.47C58.43 54.71 58.04 55.61 57.54 56.17C57.04 56.75 56.41 57.04 55.65 57.04C54.97 57.04 54.38 56.83 53.88 56.41C53.4 56.01 52.98 55.39 52.62 54.55C52.24 53.65 51.96 52.4 51.78 50.8C51.62 49.18 51.54 46.78 51.54 43.6V34.57H46.71V41.77H50.46V45.22H46.71V57.43H43.26V45.22H39.03V41.77H43.26V34.57H39.69V31H54.96V42.94C54.96 46.18 54.99 48.4 55.05 49.6C55.09 50.54 55.18 51.27 55.32 51.79C55.46 52.31 55.62 52.56 55.8 52.54C56 52.54 56.17 52.37 56.31 52.03C56.47 51.69 56.59 51.25 56.67 50.71C56.77 50.05 56.87 49.1 56.97 47.86L59.4 48.76ZM37.29 51.22L40.05 49.3L41.04 52.84L40.26 53.32C38.84 54.2 37.65 54.99 36.69 55.69L35.13 56.92L33.15 54.04C33.43 53.74 33.62 53.46 33.72 53.2C33.82 52.92 33.87 52.58 33.87 52.18V42.67H30.75V39.07H37.29V51.22Z" fill="#4E4E4E"/>
<path d="M3.492 3.824L9.882 12.536V3.824H12.312V17H10.188L3.78 8.27V17H1.386V3.824H3.492ZM23.0178 11.438H17.6718V14.714H23.8458V17H15.0618V3.824H23.6478V6.092H17.6718V9.188H23.0178V11.438ZM34.833 3.824L37.569 12.68L40.089 3.824H42.609L38.505 17H36.489L33.717 8.396L31.035 17H29.037L24.753 3.824H27.453L30.153 12.68L32.745 3.824H34.833ZM52.9225 13.184C52.9225 14.084 52.6885 14.84 52.2205 15.452C51.7645 16.052 51.1645 16.496 50.4205 16.784C49.6885 17.072 48.9025 17.216 48.0625 17.216C46.8385 17.216 45.7345 16.934 44.7505 16.37C43.7665 15.794 43.1125 14.984 42.7885 13.94L44.9125 12.734C45.2005 13.406 45.6205 13.928 46.1725 14.3C46.7245 14.672 47.3845 14.858 48.1525 14.858C48.7765 14.858 49.2685 14.732 49.6285 14.48C50.0005 14.228 50.1865 13.862 50.1865 13.382C50.1865 12.998 50.0605 12.68 49.8085 12.428C49.5685 12.176 49.2625 11.978 48.8905 11.834C48.5305 11.69 48.0325 11.522 47.3965 11.33C46.5445 11.078 45.8485 10.832 45.3085 10.592C44.7685 10.34 44.3065 9.968 43.9225 9.476C43.5385 8.984 43.3465 8.336 43.3465 7.532C43.3465 6.68 43.5685 5.96 44.0125 5.372C44.4685 4.772 45.0625 4.328 45.7945 4.04C46.5385 3.74 47.3365 3.59 48.1885 3.59C49.3525 3.59 50.3485 3.854 51.1765 4.382C52.0045 4.91 52.5385 5.624 52.7785 6.524L50.6545 7.73C50.4385 7.166 50.1145 6.728 49.6825 6.416C49.2505 6.092 48.7105 5.93 48.0625 5.93C47.4745 5.93 46.9945 6.068 46.6225 6.344C46.2625 6.608 46.0825 6.962 46.0825 7.406C46.0825 7.742 46.1965 8.024 46.4245 8.252C46.6525 8.468 46.9405 8.648 47.2885 8.792C47.6485 8.924 48.1285 9.08 48.7285 9.26C49.5925 9.512 50.3065 9.77 50.8705 10.034C51.4345 10.286 51.9145 10.67 52.3105 11.186C52.7185 11.69 52.9225 12.356 52.9225 13.184Z" fill="#4E4E4E"/>
</svg>
