<svg width="130" height="62" viewBox="0 0 130 62" fill="none" xmlns="http://www.w3.org/2000/svg">
<path d="M11.19 39.94C9.33 40.54 7.52 41.18 5.76 41.86C5.06 42.14 4.39 42.44 3.75 42.76L2.31 39.76C2.73 39.44 2.94 39.01 2.94 38.47V31.48C7.12 31 10.56 30.4 13.26 29.68L14.31 32.86C12.49 33.32 9.83 33.82 6.33 34.36V38.38L10.14 37.15C9.8 36.23 9.53 35.55 9.33 35.11L12.06 34.18C12.28 34.64 12.65 35.52 13.17 36.82C13.69 38.12 14.1 39.17 14.4 39.97L11.64 41.23C11.52 40.85 11.37 40.42 11.19 39.94ZM15.03 31.27H27.78C27.66 33.59 27.43 36.02 27.09 38.56C26.93 39.62 26.72 40.42 26.46 40.96C26.2 41.5 25.82 41.89 25.32 42.13C24.84 42.35 24.15 42.46 23.25 42.46C22.11 42.46 21.08 42.41 20.16 42.31L19.56 39.37C20.56 39.53 21.4 39.61 22.08 39.61C22.6 39.61 22.98 39.47 23.22 39.19C23.46 38.91 23.63 38.49 23.73 37.93C23.97 36.53 24.12 35.26 24.18 34.12H20.01C19.93 34.92 19.83 35.69 19.71 36.43C19.45 37.81 19.04 39 18.48 40C17.94 40.98 17.07 42.01 15.87 43.09L13.44 40.96C14.48 40 15.24 39.11 15.72 38.29C16.2 37.45 16.51 36.52 16.65 35.5C16.75 35.02 16.81 34.56 16.83 34.12H15.03V31.27ZM7.53 57.52H3.96V43.42H26.01V57.52H22.47V56.35H7.53V57.52ZM13.2 48.49V46.24H7.53V48.49H13.2ZM16.74 48.49H22.47V46.24H16.74V48.49ZM7.53 51.22V53.44H13.2V51.22H7.53ZM16.74 51.22V53.44H22.47V51.22H16.74ZM58.53 32.77V36.1H31.44V32.77H43.35C42.99 31.75 42.68 30.91 42.42 30.25L46.59 29.65C46.93 30.59 47.27 31.63 47.61 32.77H58.53ZM34.41 37.72H55.62V40.66H34.41V37.72ZM55.62 45.19H34.41V42.25H55.62V45.19ZM37.62 57.49H34.11V46.78H55.86V57.46H52.32V56.08H37.62V57.49ZM52.32 52.81V49.96H37.62V52.81H52.32ZM70.11 45.88L68.19 44.14V57.52H64.83V46C64.01 47.78 63.08 49.41 62.04 50.89L60.45 47.29C61.25 46.15 62.04 44.77 62.82 43.15C63.6 41.51 64.24 39.89 64.74 38.29H61.62V34.9H64.83V29.89H68.19V34.9H70.95V38.29H68.19V40.27L69.66 41.53C70.7 42.39 71.44 43.04 71.88 43.48L70.11 45.88ZM83.49 50.38C84.91 51.9 86.76 53.27 89.04 54.49L87.18 57.82C84.76 56.32 82.78 54.72 81.24 53.02C79.62 54.62 77.56 56.16 75.06 57.64L73.14 54.58C72.74 55.48 72.24 56.44 71.64 57.46L68.67 55.33C69.57 53.99 70.28 52.63 70.8 51.25C71.32 49.87 71.7 48.29 71.94 46.51C72.18 44.73 72.3 42.57 72.3 40.03V32.05C76.62 31.81 81.49 31.18 86.91 30.16L87.66 33.64C85.72 34.02 83.67 34.36 81.51 34.66C79.37 34.96 77.41 35.19 75.63 35.35V37.9H87.42V41.32C86.94 43.2 86.38 44.88 85.74 46.36C85.12 47.82 84.37 49.16 83.49 50.38ZM81.36 47.47C81.94 46.61 82.42 45.69 82.8 44.71C83.2 43.73 83.57 42.6 83.91 41.32H78.96C79.62 43.8 80.42 45.85 81.36 47.47ZM73.29 54.31C75.65 52.95 77.57 51.58 79.05 50.2C77.51 47.8 76.37 44.85 75.63 41.35C75.59 44.15 75.39 46.57 75.03 48.61C74.67 50.63 74.09 52.53 73.29 54.31Z" fill="#4E4E4E"/>
<path d="M12.438 3.824H14.418V17H11.934V8.504L8.586 13.49H7.218L3.852 8.468V17H1.386V3.824H3.456L7.956 10.646L12.438 3.824ZM21.1127 7.442C21.9407 7.442 22.6727 7.628 23.3087 8C23.9567 8.36 24.4547 8.876 24.8027 9.548C25.1627 10.208 25.3427 10.97 25.3427 11.834C25.3427 12.218 25.3067 12.608 25.2347 13.004H19.0427C19.1507 13.7 19.4027 14.228 19.7987 14.588C20.1947 14.936 20.6867 15.11 21.2747 15.11C21.6947 15.11 22.0667 15.02 22.3907 14.84C22.7267 14.648 22.9847 14.366 23.1647 13.994L25.0007 15.074C24.7487 15.758 24.2627 16.286 23.5427 16.658C22.8347 17.03 22.0427 17.216 21.1667 17.216C20.3267 17.216 19.5467 17.03 18.8267 16.658C18.1067 16.286 17.5247 15.728 17.0807 14.984C16.6487 14.24 16.4327 13.346 16.4327 12.302C16.4327 11.27 16.6487 10.388 17.0807 9.656C17.5247 8.924 18.1007 8.372 18.8087 8C19.5167 7.628 20.2847 7.442 21.1127 7.442ZM21.0407 9.476C20.5487 9.476 20.1287 9.632 19.7807 9.944C19.4327 10.256 19.1987 10.694 19.0787 11.258H22.7867C22.7387 10.682 22.5527 10.244 22.2287 9.944C21.9167 9.632 21.5207 9.476 21.0407 9.476ZM34.0625 14.228C34.0625 15.152 33.7025 15.884 32.9825 16.424C32.2745 16.952 31.3505 17.216 30.2105 17.216C29.2265 17.216 28.3745 17.006 27.6545 16.586C26.9465 16.166 26.4665 15.584 26.2145 14.84L28.0325 13.778C28.2125 14.222 28.4945 14.57 28.8785 14.822C29.2625 15.062 29.7125 15.182 30.2285 15.182C30.6125 15.182 30.9185 15.11 31.1465 14.966C31.3745 14.822 31.4885 14.618 31.4885 14.354C31.4885 14.054 31.3385 13.826 31.0385 13.67C30.7385 13.502 30.2705 13.328 29.6345 13.148C28.9985 12.956 28.4765 12.77 28.0685 12.59C27.6725 12.41 27.3245 12.152 27.0245 11.816C26.7365 11.468 26.5925 11.018 26.5925 10.466C26.5925 9.842 26.7605 9.302 27.0965 8.846C27.4445 8.39 27.9065 8.042 28.4825 7.802C29.0585 7.562 29.6885 7.442 30.3725 7.442C31.3085 7.442 32.1005 7.646 32.7485 8.054C33.3965 8.45 33.8045 8.978 33.9725 9.638L32.1545 10.664C31.7945 9.884 31.1885 9.494 30.3365 9.494C29.9765 9.494 29.6885 9.566 29.4725 9.71C29.2565 9.842 29.1485 10.034 29.1485 10.286C29.1485 10.574 29.2925 10.796 29.5805 10.952C29.8685 11.096 30.3185 11.252 30.9305 11.42C31.5785 11.6 32.1125 11.78 32.5325 11.96C32.9525 12.14 33.3125 12.416 33.6125 12.788C33.9125 13.148 34.0625 13.628 34.0625 14.228ZM42.6582 14.228C42.6582 15.152 42.2982 15.884 41.5782 16.424C40.8702 16.952 39.9462 17.216 38.8062 17.216C37.8222 17.216 36.9702 17.006 36.2502 16.586C35.5422 16.166 35.0622 15.584 34.8102 14.84L36.6282 13.778C36.8082 14.222 37.0902 14.57 37.4742 14.822C37.8582 15.062 38.3082 15.182 38.8242 15.182C39.2082 15.182 39.5142 15.11 39.7422 14.966C39.9702 14.822 40.0842 14.618 40.0842 14.354C40.0842 14.054 39.9342 13.826 39.6342 13.67C39.3342 13.502 38.8662 13.328 38.2302 13.148C37.5942 12.956 37.0722 12.77 36.6642 12.59C36.2682 12.41 35.9202 12.152 35.6202 11.816C35.3322 11.468 35.1882 11.018 35.1882 10.466C35.1882 9.842 35.3562 9.302 35.6922 8.846C36.0402 8.39 36.5022 8.042 37.0782 7.802C37.6542 7.562 38.2842 7.442 38.9682 7.442C39.9042 7.442 40.6962 7.646 41.3442 8.054C41.9922 8.45 42.4002 8.978 42.5682 9.638L40.7502 10.664C40.3902 9.884 39.7842 9.494 38.9322 9.494C38.5722 9.494 38.2842 9.566 38.0682 9.71C37.8522 9.842 37.7442 10.034 37.7442 10.286C37.7442 10.574 37.8882 10.796 38.1762 10.952C38.4642 11.096 38.9142 11.252 39.5262 11.42C40.1742 11.6 40.7082 11.78 41.1282 11.96C41.5482 12.14 41.9082 12.416 42.2082 12.788C42.5082 13.148 42.6582 13.628 42.6582 14.228ZM48.1081 7.442C49.3681 7.442 50.3521 7.802 51.0601 8.522C51.7681 9.23 52.1221 10.244 52.1221 11.564V17H50.0161C50.0041 16.904 49.9861 16.748 49.9621 16.532C49.9501 16.304 49.9261 16.106 49.8901 15.938C49.6141 16.37 49.2541 16.694 48.8101 16.91C48.3781 17.114 47.8501 17.216 47.2261 17.216C46.5781 17.216 45.9841 17.102 45.4441 16.874C44.9161 16.646 44.4961 16.316 44.1841 15.884C43.8721 15.44 43.7161 14.918 43.7161 14.318C43.7161 13.694 43.8901 13.154 44.2381 12.698C44.5981 12.23 45.0781 11.87 45.6781 11.618C46.2781 11.366 46.9381 11.24 47.6581 11.24C48.3061 11.24 48.9721 11.348 49.6561 11.564C49.6201 10.184 49.0321 9.494 47.8921 9.494C46.9801 9.494 46.3141 9.902 45.8941 10.718L44.1121 9.692C44.4481 8.996 44.9641 8.45 45.6601 8.054C46.3561 7.646 47.1721 7.442 48.1081 7.442ZM49.6561 13.22C49.0561 13.076 48.5341 13.004 48.0901 13.004C47.5021 13.004 47.0461 13.112 46.7221 13.328C46.3981 13.532 46.2361 13.826 46.2361 14.21C46.2361 14.558 46.3621 14.828 46.6141 15.02C46.8781 15.212 47.2141 15.308 47.6221 15.308C48.1621 15.308 48.6361 15.158 49.0441 14.858C49.4521 14.546 49.6561 14.12 49.6561 13.58V13.22ZM63.3083 7.676V16.046C63.3083 17.93 62.8343 19.292 61.8863 20.132C60.9383 20.972 59.7623 21.392 58.3583 21.392C57.3383 21.392 56.4383 21.176 55.6583 20.744C54.8903 20.312 54.3443 19.712 54.0203 18.944L55.9463 17.846C56.4143 18.746 57.2183 19.196 58.3583 19.196C59.2463 19.196 59.8703 18.932 60.2303 18.404C60.6023 17.888 60.7943 17.048 60.8063 15.884C60.1823 16.772 59.2823 17.216 58.1063 17.216C57.3503 17.216 56.6423 17.024 55.9823 16.64C55.3223 16.244 54.7883 15.68 54.3803 14.948C53.9843 14.204 53.7863 13.334 53.7863 12.338C53.7863 11.33 53.9843 10.46 54.3803 9.728C54.7883 8.984 55.3223 8.42 55.9823 8.036C56.6423 7.64 57.3503 7.442 58.1063 7.442C58.7183 7.442 59.2703 7.574 59.7623 7.838C60.2543 8.102 60.6563 8.504 60.9683 9.044C61.0523 8.552 61.1003 8.096 61.1123 7.676H63.3083ZM58.5743 15.074C59.1983 15.074 59.7263 14.846 60.1583 14.39C60.5903 13.934 60.8063 13.25 60.8063 12.338C60.8063 11.438 60.5903 10.772 60.1583 10.34C59.7263 9.896 59.1983 9.674 58.5743 9.674C57.9143 9.674 57.3803 9.908 56.9723 10.376C56.5763 10.844 56.3783 11.498 56.3783 12.338C56.3783 13.178 56.5763 13.844 56.9723 14.336C57.3803 14.828 57.9143 15.074 58.5743 15.074ZM69.6987 7.442C70.5267 7.442 71.2587 7.628 71.8947 8C72.5427 8.36 73.0407 8.876 73.3887 9.548C73.7487 10.208 73.9287 10.97 73.9287 11.834C73.9287 12.218 73.8927 12.608 73.8207 13.004H67.6287C67.7367 13.7 67.9887 14.228 68.3847 14.588C68.7807 14.936 69.2727 15.11 69.8607 15.11C70.2807 15.11 70.6527 15.02 70.9767 14.84C71.3127 14.648 71.5707 14.366 71.7507 13.994L73.5867 15.074C73.3347 15.758 72.8487 16.286 72.1287 16.658C71.4207 17.03 70.6287 17.216 69.7527 17.216C68.9127 17.216 68.1327 17.03 67.4127 16.658C66.6927 16.286 66.1107 15.728 65.6667 14.984C65.2347 14.24 65.0187 13.346 65.0187 12.302C65.0187 11.27 65.2347 10.388 65.6667 9.656C66.1107 8.924 66.6867 8.372 67.3947 8C68.1027 7.628 68.8707 7.442 69.6987 7.442ZM69.6267 9.476C69.1347 9.476 68.7147 9.632 68.3667 9.944C68.0187 10.256 67.7847 10.694 67.6647 11.258H71.3727C71.3247 10.682 71.1387 10.244 70.8147 9.944C70.5027 9.632 70.1067 9.476 69.6267 9.476ZM85.7578 7.442C86.5138 7.442 87.2098 7.634 87.8458 8.018C88.4938 8.402 89.0038 8.966 89.3758 9.71C89.7598 10.454 89.9518 11.33 89.9518 12.338C89.9518 13.346 89.7598 14.222 89.3758 14.966C89.0038 15.698 88.4938 16.256 87.8458 16.64C87.2098 17.024 86.5138 17.216 85.7578 17.216C85.1338 17.216 84.5578 17.084 84.0298 16.82C83.5138 16.556 83.0938 16.148 82.7698 15.596C82.6858 16.28 82.6378 16.748 82.6258 17H80.4298V3.302H82.9318V8.846C83.2678 8.378 83.6758 8.03 84.1558 7.802C84.6478 7.562 85.1818 7.442 85.7578 7.442ZM85.1818 15.074C85.8298 15.074 86.3518 14.828 86.7478 14.336C87.1558 13.844 87.3598 13.178 87.3598 12.338C87.3598 11.498 87.1618 10.844 86.7658 10.376C86.3698 9.908 85.8418 9.674 85.1818 9.674C84.5458 9.674 84.0118 9.896 83.5798 10.34C83.1478 10.772 82.9318 11.438 82.9318 12.338C82.9318 13.238 83.1478 13.922 83.5798 14.39C84.0238 14.846 84.5578 15.074 85.1818 15.074ZM91.2277 12.338C91.2277 11.366 91.4437 10.508 91.8757 9.764C92.3197 9.02 92.9077 8.45 93.6397 8.054C94.3717 7.646 95.1637 7.442 96.0157 7.442C96.8557 7.442 97.6357 7.646 98.3557 8.054C99.0877 8.45 99.6697 9.02 100.102 9.764C100.546 10.508 100.768 11.366 100.768 12.338C100.768 13.31 100.546 14.168 100.102 14.912C99.6697 15.656 99.0877 16.226 98.3557 16.622C97.6357 17.018 96.8557 17.216 96.0157 17.216C95.1637 17.216 94.3717 17.018 93.6397 16.622C92.9077 16.226 92.3197 15.656 91.8757 14.912C91.4437 14.168 91.2277 13.31 91.2277 12.338ZM93.8197 12.338C93.8197 13.166 94.0237 13.826 94.4317 14.318C94.8517 14.798 95.3737 15.038 95.9977 15.038C96.6217 15.038 97.1377 14.798 97.5457 14.318C97.9537 13.826 98.1577 13.166 98.1577 12.338C98.1577 11.51 97.9537 10.85 97.5457 10.358C97.1377 9.866 96.6217 9.62 95.9977 9.62C95.3737 9.62 94.8517 9.866 94.4317 10.358C94.0237 10.85 93.8197 11.51 93.8197 12.338ZM106.362 7.442C107.622 7.442 108.606 7.802 109.314 8.522C110.022 9.23 110.376 10.244 110.376 11.564V17H108.27C108.258 16.904 108.24 16.748 108.216 16.532C108.204 16.304 108.18 16.106 108.144 15.938C107.868 16.37 107.508 16.694 107.064 16.91C106.632 17.114 106.104 17.216 105.48 17.216C104.832 17.216 104.238 17.102 103.698 16.874C103.17 16.646 102.75 16.316 102.438 15.884C102.126 15.44 101.97 14.918 101.97 14.318C101.97 13.694 102.144 13.154 102.492 12.698C102.852 12.23 103.332 11.87 103.932 11.618C104.532 11.366 105.192 11.24 105.912 11.24C106.56 11.24 107.226 11.348 107.91 11.564C107.874 10.184 107.286 9.494 106.146 9.494C105.234 9.494 104.568 9.902 104.148 10.718L102.366 9.692C102.702 8.996 103.218 8.45 103.914 8.054C104.61 7.646 105.426 7.442 106.362 7.442ZM107.91 13.22C107.31 13.076 106.788 13.004 106.344 13.004C105.756 13.004 105.3 13.112 104.976 13.328C104.652 13.532 104.49 13.826 104.49 14.21C104.49 14.558 104.616 14.828 104.868 15.02C105.132 15.212 105.468 15.308 105.876 15.308C106.416 15.308 106.89 15.158 107.298 14.858C107.706 14.546 107.91 14.12 107.91 13.58V13.22ZM117.53 7.442C117.89 7.442 118.226 7.496 118.538 7.604C118.85 7.712 119.09 7.85 119.258 8.018L118.286 9.944C117.974 9.728 117.62 9.62 117.224 9.62C116.576 9.62 116.054 9.89 115.658 10.43C115.274 10.97 115.082 11.714 115.082 12.662V17H112.58V7.676H114.776C114.836 8.396 114.89 8.888 114.938 9.152C115.214 8.588 115.574 8.162 116.018 7.874C116.462 7.586 116.966 7.442 117.53 7.442ZM126.179 3.302H128.681V17H126.485C126.425 16.304 126.377 15.836 126.341 15.596C126.017 16.136 125.591 16.544 125.063 16.82C124.547 17.084 123.983 17.216 123.371 17.216C122.603 17.216 121.901 17.024 121.265 16.64C120.629 16.256 120.119 15.698 119.735 14.966C119.351 14.222 119.159 13.346 119.159 12.338C119.159 11.318 119.351 10.442 119.735 9.71C120.119 8.966 120.629 8.402 121.265 8.018C121.901 7.634 122.603 7.442 123.371 7.442C123.935 7.442 124.457 7.556 124.937 7.784C125.429 8.012 125.843 8.36 126.179 8.828V3.302ZM123.947 15.074C124.571 15.074 125.099 14.846 125.531 14.39C125.963 13.934 126.179 13.25 126.179 12.338C126.179 11.438 125.963 10.772 125.531 10.34C125.099 9.896 124.571 9.674 123.947 9.674C123.287 9.674 122.753 9.908 122.345 10.376C121.949 10.844 121.751 11.498 121.751 12.338C121.751 13.178 121.949 13.844 122.345 14.336C122.753 14.828 123.287 15.074 123.947 15.074Z" fill="#4E4E4E"/>
</svg>
