<svg width="210" height="62" viewBox="0 0 210 62" fill="none" xmlns="http://www.w3.org/2000/svg">
<path d="M28.86 49.9C28.5 51.48 28.13 52.86 27.75 54.04C27.35 55.34 26.85 56.26 26.25 56.8C25.65 57.36 24.9 57.64 24 57.64C23.12 57.64 22.31 57.37 21.57 56.83C20.83 56.31 20.12 55.48 19.44 54.34C19.14 53.86 18.83 53.23 18.51 52.45C16.83 53.65 14.97 54.77 12.93 55.81L11.16 52.42C13.4 51.38 15.47 50.21 17.37 48.91C16.81 46.65 16.38 44.1 16.08 41.26H10.32V44.32L14.58 43.45L14.97 46.96C12.83 47.42 11.28 47.75 10.32 47.95V53.35C10.32 54.75 10.01 55.74 9.39 56.32C8.79 56.9 7.76 57.21 6.3 57.25C5.24 57.25 4.33 57.2 3.57 57.1L2.85 53.65C3.85 53.81 4.77 53.89 5.61 53.89C5.99 53.89 6.27 53.76 6.45 53.5C6.63 53.24 6.72 52.84 6.72 52.3V48.67L1.92 49.63L1.35 46C2.23 45.88 4.02 45.56 6.72 45.04V41.26H1.59V37.87H6.72V35.11C5.38 35.29 3.99 35.44 2.55 35.56L2.28 32.26C6.22 31.92 10.03 31.3 13.71 30.4L14.25 33.76C13.59 33.92 12.28 34.19 10.32 34.57V37.87H15.81C15.77 37.47 15.73 36.85 15.69 36.01C15.57 33.59 15.48 31.56 15.42 29.92H18.96C18.96 30.98 19.04 32.97 19.2 35.89L19.32 37.87H28.14V41.26H19.59C19.79 43.44 20.02 45.2 20.28 46.54C21.84 45.12 23.16 43.55 24.24 41.83L27.18 43.69C25.62 46.07 23.67 48.26 21.33 50.26C21.65 51.12 22.05 51.89 22.53 52.57C22.79 52.97 23.02 53.26 23.22 53.44C23.44 53.6 23.66 53.68 23.88 53.68C24.1 53.68 24.29 53.56 24.45 53.32C24.63 53.08 24.81 52.57 24.99 51.79C25.13 51.33 25.39 50.2 25.77 48.4L28.86 49.9ZM24.9 37.36C23.44 35.7 21.83 34.06 20.07 32.44L22.35 30.16C23.13 30.8 23.98 31.57 24.9 32.47C25.84 33.37 26.67 34.19 27.39 34.93L24.9 37.36ZM43.38 29.38C43.98 30 44.67 30.77 45.45 31.69C46.25 32.61 46.89 33.37 47.37 33.97L44.79 36.31C44.35 35.71 43.72 34.91 42.9 33.91C42.1 32.91 41.45 32.14 40.95 31.6L43.38 29.38ZM39.96 30.61C39.28 32.81 38.47 34.99 37.53 37.15V57.31H34.14V43.63C33.46 44.75 32.75 45.81 32.01 46.81L30.69 42.73C31.75 41.21 32.85 39.21 33.99 36.73C35.13 34.25 36.01 31.9 36.63 29.68L39.96 30.61ZM48.12 31.24H57.72V52.66C57.72 53.96 57.57 54.93 57.27 55.57C56.97 56.23 56.49 56.67 55.83 56.89C55.17 57.11 54.2 57.22 52.92 57.22C52 57.22 51.01 57.17 49.95 57.07L49.29 53.62C50.45 53.78 51.51 53.86 52.47 53.86C52.97 53.86 53.35 53.8 53.61 53.68C53.87 53.56 54.05 53.35 54.15 53.05C54.25 52.73 54.3 52.26 54.3 51.64V34.69H48.12V31.24ZM43.71 57.13H40.23V36.13H43.71V57.13ZM88.62 31.12V34.6H85.26V52.66C85.26 53.98 85.11 54.96 84.81 55.6C84.51 56.24 83.98 56.68 83.22 56.92C82.46 57.16 81.31 57.28 79.77 57.28C78.63 57.28 77.51 57.22 76.41 57.1L75.69 53.59C77.11 53.77 78.48 53.86 79.8 53.86C80.56 53.86 81.06 53.71 81.3 53.41C81.56 53.11 81.69 52.52 81.69 51.64V34.6H61.47V31.12H88.62ZM64.32 37.87H77.67V50.89H64.32V37.87ZM67.74 47.53H74.22V41.26H67.74V47.53ZM104.37 39.82C102.41 36.28 100.82 33.58 99.6 31.72L102.51 29.89C103.09 30.77 103.88 32.03 104.88 33.67C105.88 35.31 106.73 36.73 107.43 37.93L104.37 39.82ZM116.31 57.1C115.15 55.48 113.49 53.4 111.33 50.86C110.43 52.06 109.28 53.2 107.88 54.28C106.5 55.36 104.76 56.49 102.66 57.67L100.44 54.43C103.18 52.95 105.29 51.49 106.77 50.05C108.25 48.61 109.33 46.97 110.01 45.13C110.69 43.27 111.17 40.87 111.45 37.93C111.57 36.61 111.63 34.21 111.63 30.73H115.26V32.14C115.26 34.64 115.2 36.66 115.08 38.2C114.94 40.14 114.73 41.85 114.45 43.33C114.19 44.79 113.82 46.11 113.34 47.29C116.34 50.63 118.28 52.83 119.16 53.89L116.31 57.1ZM105.42 46.75C102.32 49.23 99.63 51.43 97.35 53.35C96.21 54.33 95.24 55.18 94.44 55.9L92.1 52.87C92.44 52.53 92.66 52.23 92.76 51.97C92.88 51.71 92.94 51.37 92.94 50.95V31.42H96.63V49.27L103.38 43.57L105.42 46.75ZM144.66 49.54C145.82 51.26 147.39 52.98 149.37 54.7L147.15 57.64C145.31 55.92 143.85 54.25 142.77 52.63C141.53 54.33 139.95 56.05 138.03 57.79L135.72 54.97L135.9 54.82H128.31V42.34H131.07V38.17H127.8V34.81H131.07V29.98H134.37V34.81H137.61V38.05C138.21 36.71 138.74 35.31 139.2 33.85C139.66 32.37 139.99 30.98 140.19 29.68L143.4 30.25C143.14 31.67 142.83 33.03 142.47 34.33H149.04V37.75H147.48C147.24 40.31 146.91 42.52 146.49 44.38C146.07 46.24 145.46 47.96 144.66 49.54ZM128.73 30.76C128.09 33.1 127.39 35.22 126.63 37.12V57.49H123.39V43.81L121.77 46.51L120.51 41.86C121.49 40.1 122.42 38.18 123.3 36.1C124.18 34 124.87 31.92 125.37 29.86L128.73 30.76ZM141.36 37.75L141.03 38.59C141.33 41.45 141.91 43.93 142.77 46.03C143.61 43.85 144.2 41.09 144.54 37.75H141.36ZM134.37 38.17V42.34H137.1L136.17 40.96C136.55 40.3 137.01 39.37 137.55 38.17H134.37ZM137.16 53.74C138.76 52.3 140.04 50.87 141 49.45C140.14 47.57 139.46 45.3 138.96 42.64C138.76 42.98 138.48 43.4 138.12 43.9L137.16 42.46V53.74ZM131.28 51.46H134.13V45.67H131.28V51.46ZM161.16 30.67C160.42 32.81 159.61 34.8 158.73 36.64V57.28H155.07V43.15C154.43 44.15 153.55 45.37 152.43 46.81L150.66 42.88C151.96 41.26 153.24 39.2 154.5 36.7C155.78 34.2 156.84 31.74 157.68 29.32L161.16 30.67ZM171.48 39.4H178.77V43.15H171.48V57.37H167.73V43.15H160.2V39.4H167.73V29.92H171.48V39.4ZM196.41 31.81C194.85 34.35 192.95 36.94 190.71 39.58C188.47 42.2 186.29 44.41 184.17 46.21L181.38 43.24C183.54 41.54 185.67 39.45 187.77 36.97C189.89 34.49 191.6 32.07 192.9 29.71L196.41 31.81ZM205.32 57.49L203.79 54.76C203.03 54.84 201.81 54.94 200.13 55.06C195.61 55.44 192.06 55.76 189.48 56.02C187.2 56.26 185.64 56.44 184.8 56.56L183.81 52.54C184.43 52.38 184.94 52.19 185.34 51.97C185.74 51.75 186.21 51.41 186.75 50.95C187.83 49.99 189.2 48.56 190.86 46.66C192.52 44.74 194.18 42.67 195.84 40.45C197.5 38.21 198.88 36.15 199.98 34.27L203.46 36.28C201.64 39.14 199.45 42.14 196.89 45.28C194.33 48.42 192.19 50.77 190.47 52.33C192.33 52.15 194.19 51.97 196.05 51.79C197.93 51.59 199.81 51.39 201.69 51.19C200.23 48.75 199.18 47.06 198.54 46.12L201.63 44.11C202.45 45.31 203.59 47.07 205.05 49.39C206.53 51.69 207.77 53.68 208.77 55.36L205.32 57.49Z" fill="#4E4E4E"/>
<path d="M10.206 3.824L12.942 12.68L15.462 3.824H17.982L13.878 17H11.862L9.09 8.396L6.408 17H4.41L0.126 3.824H2.826L5.526 12.68L8.118 3.824H10.206ZM24.6215 7.442C25.6415 7.442 26.4515 7.784 27.0515 8.468C27.6635 9.14 27.9695 10.124 27.9695 11.42V17H25.4675V12.23C25.4675 10.526 24.9035 9.674 23.7755 9.674C23.1755 9.674 22.6895 9.908 22.3175 10.376C21.9575 10.832 21.7775 11.48 21.7775 12.32V17H19.2755V3.302H21.7775V8.918C22.3775 7.934 23.3255 7.442 24.6215 7.442ZM34.0808 7.442C35.3408 7.442 36.3248 7.802 37.0328 8.522C37.7408 9.23 38.0948 10.244 38.0948 11.564V17H35.9888C35.9768 16.904 35.9588 16.748 35.9348 16.532C35.9228 16.304 35.8988 16.106 35.8628 15.938C35.5868 16.37 35.2268 16.694 34.7828 16.91C34.3508 17.114 33.8228 17.216 33.1988 17.216C32.5508 17.216 31.9568 17.102 31.4168 16.874C30.8888 16.646 30.4688 16.316 30.1567 15.884C29.8448 15.44 29.6888 14.918 29.6888 14.318C29.6888 13.694 29.8628 13.154 30.2108 12.698C30.5708 12.23 31.0508 11.87 31.6508 11.618C32.2508 11.366 32.9108 11.24 33.6308 11.24C34.2788 11.24 34.9448 11.348 35.6288 11.564C35.5928 10.184 35.0048 9.494 33.8648 9.494C32.9528 9.494 32.2868 9.902 31.8668 10.718L30.0848 9.692C30.4208 8.996 30.9368 8.45 31.6328 8.054C32.3288 7.646 33.1448 7.442 34.0808 7.442ZM35.6288 13.22C35.0288 13.076 34.5068 13.004 34.0628 13.004C33.4748 13.004 33.0188 13.112 32.6948 13.328C32.3708 13.532 32.2088 13.826 32.2088 14.21C32.2088 14.558 32.3348 14.828 32.5868 15.02C32.8508 15.212 33.1868 15.308 33.5947 15.308C34.1348 15.308 34.6088 15.158 35.0168 14.858C35.4248 14.546 35.6288 14.12 35.6288 13.58V13.22ZM46.7262 16.46C46.1142 16.964 45.2622 17.216 44.1702 17.216C43.1622 17.216 42.3462 16.952 41.7222 16.424C41.1102 15.884 40.8042 14.924 40.8042 13.544V9.782H39.1482V7.676H40.8042V4.814H43.3062V7.676H46.1142V9.782H43.3062V13.13C43.3062 13.754 43.4142 14.228 43.6302 14.552C43.8462 14.876 44.1942 15.038 44.6742 15.038C45.0942 15.038 45.4902 14.912 45.8622 14.66L46.7262 16.46ZM56.9031 15.038C57.6231 15.038 58.1991 14.684 58.6311 13.976L60.5391 15.092C60.2391 15.788 59.7651 16.316 59.1171 16.676C58.4691 17.036 57.7311 17.216 56.9031 17.216C56.0751 17.216 55.3011 17.03 54.5811 16.658C53.8611 16.274 53.2791 15.716 52.8351 14.984C52.3911 14.24 52.1691 13.358 52.1691 12.338C52.1691 11.306 52.3911 10.424 52.8351 9.692C53.2791 8.948 53.8611 8.39 54.5811 8.018C55.3011 7.634 56.0751 7.442 56.9031 7.442C57.7311 7.442 58.4691 7.622 59.1171 7.982C59.7651 8.342 60.2391 8.87 60.5391 9.566L58.6311 10.682C58.2111 9.986 57.6351 9.638 56.9031 9.638C56.2551 9.638 55.7331 9.884 55.3371 10.376C54.9531 10.856 54.7611 11.51 54.7611 12.338C54.7611 13.154 54.9591 13.808 55.3551 14.3C55.7511 14.792 56.2671 15.038 56.9031 15.038ZM65.7038 7.442C66.9638 7.442 67.9478 7.802 68.6558 8.522C69.3638 9.23 69.7178 10.244 69.7178 11.564V17H67.6118C67.5998 16.904 67.5818 16.748 67.5578 16.532C67.5458 16.304 67.5218 16.106 67.4858 15.938C67.2098 16.37 66.8498 16.694 66.4058 16.91C65.9738 17.114 65.4458 17.216 64.8218 17.216C64.1738 17.216 63.5798 17.102 63.0398 16.874C62.5118 16.646 62.0918 16.316 61.7798 15.884C61.4678 15.44 61.3118 14.918 61.3118 14.318C61.3118 13.694 61.4858 13.154 61.8338 12.698C62.1938 12.23 62.6738 11.87 63.2738 11.618C63.8738 11.366 64.5338 11.24 65.2538 11.24C65.9018 11.24 66.5678 11.348 67.2518 11.564C67.2158 10.184 66.6278 9.494 65.4878 9.494C64.5758 9.494 63.9098 9.902 63.4898 10.718L61.7078 9.692C62.0438 8.996 62.5598 8.45 63.2558 8.054C63.9518 7.646 64.7678 7.442 65.7038 7.442ZM67.2518 13.22C66.6518 13.076 66.1298 13.004 65.6858 13.004C65.0978 13.004 64.6418 13.112 64.3178 13.328C63.9938 13.532 63.8318 13.826 63.8318 14.21C63.8318 14.558 63.9578 14.828 64.2098 15.02C64.4738 15.212 64.8098 15.308 65.2178 15.308C65.7578 15.308 66.2318 15.158 66.6398 14.858C67.0478 14.546 67.2518 14.12 67.2518 13.58V13.22ZM77.268 7.442C78.3 7.442 79.116 7.784 79.716 8.468C80.316 9.14 80.616 10.124 80.616 11.42V17H78.114V12.23C78.114 10.526 77.55 9.674 76.422 9.674C75.822 9.674 75.336 9.908 74.964 10.376C74.604 10.832 74.424 11.48 74.424 12.32V17H71.922V7.676H74.118C74.178 8.408 74.232 8.906 74.28 9.17C74.88 8.018 75.876 7.442 77.268 7.442ZM94.9988 7.676L96.9428 13.49L98.7788 7.676H101.209L97.8068 16.982H96.0248L93.9008 11.312L91.8668 16.982H90.0668L86.5388 7.676H89.1128L91.0748 13.562L92.9108 7.676H94.9988ZM106.033 7.442C106.861 7.442 107.593 7.628 108.229 8C108.877 8.36 109.375 8.876 109.723 9.548C110.083 10.208 110.263 10.97 110.263 11.834C110.263 12.218 110.227 12.608 110.155 13.004H103.963C104.071 13.7 104.323 14.228 104.719 14.588C105.115 14.936 105.607 15.11 106.195 15.11C106.615 15.11 106.987 15.02 107.311 14.84C107.647 14.648 107.905 14.366 108.085 13.994L109.921 15.074C109.669 15.758 109.183 16.286 108.463 16.658C107.755 17.03 106.963 17.216 106.087 17.216C105.247 17.216 104.467 17.03 103.747 16.658C103.027 16.286 102.445 15.728 102.001 14.984C101.569 14.24 101.353 13.346 101.353 12.302C101.353 11.27 101.569 10.388 102.001 9.656C102.445 8.924 103.021 8.372 103.729 8C104.437 7.628 105.205 7.442 106.033 7.442ZM105.961 9.476C105.469 9.476 105.049 9.632 104.701 9.944C104.353 10.256 104.119 10.694 103.999 11.258H107.707C107.659 10.682 107.473 10.244 107.149 9.944C106.837 9.632 106.441 9.476 105.961 9.476ZM123.244 3.302H125.746V17H123.55C123.49 16.304 123.442 15.836 123.406 15.596C123.082 16.136 122.656 16.544 122.128 16.82C121.612 17.084 121.048 17.216 120.436 17.216C119.668 17.216 118.966 17.024 118.33 16.64C117.694 16.256 117.184 15.698 116.8 14.966C116.416 14.222 116.224 13.346 116.224 12.338C116.224 11.318 116.416 10.442 116.8 9.71C117.184 8.966 117.694 8.402 118.33 8.018C118.966 7.634 119.668 7.442 120.436 7.442C121 7.442 121.522 7.556 122.002 7.784C122.494 8.012 122.908 8.36 123.244 8.828V3.302ZM121.012 15.074C121.636 15.074 122.164 14.846 122.596 14.39C123.028 13.934 123.244 13.25 123.244 12.338C123.244 11.438 123.028 10.772 122.596 10.34C122.164 9.896 121.636 9.674 121.012 9.674C120.352 9.674 119.818 9.908 119.41 10.376C119.014 10.844 118.816 11.498 118.816 12.338C118.816 13.178 119.014 13.844 119.41 14.336C119.818 14.828 120.352 15.074 121.012 15.074ZM127.544 12.338C127.544 11.366 127.76 10.508 128.192 9.764C128.636 9.02 129.224 8.45 129.956 8.054C130.688 7.646 131.48 7.442 132.332 7.442C133.172 7.442 133.952 7.646 134.672 8.054C135.404 8.45 135.986 9.02 136.418 9.764C136.862 10.508 137.084 11.366 137.084 12.338C137.084 13.31 136.862 14.168 136.418 14.912C135.986 15.656 135.404 16.226 134.672 16.622C133.952 17.018 133.172 17.216 132.332 17.216C131.48 17.216 130.688 17.018 129.956 16.622C129.224 16.226 128.636 15.656 128.192 14.912C127.76 14.168 127.544 13.31 127.544 12.338ZM130.136 12.338C130.136 13.166 130.34 13.826 130.748 14.318C131.168 14.798 131.69 15.038 132.314 15.038C132.938 15.038 133.454 14.798 133.862 14.318C134.27 13.826 134.474 13.166 134.474 12.338C134.474 11.51 134.27 10.85 133.862 10.358C133.454 9.866 132.938 9.62 132.314 9.62C131.69 9.62 131.168 9.866 130.748 10.358C130.34 10.85 130.136 11.51 130.136 12.338Z" fill="#4E4E4E"/>
</svg>
