<svg width="91" height="29" viewBox="0 0 91 29" fill="none" xmlns="http://www.w3.org/2000/svg">
<rect x="35" y="20" width="56" height="5" rx="2.5" fill="#ACD7FF"/>
<path d="M45.025 13.7H61.15C61.0333 16.6167 60.85 19.0917 60.6 21.125C60.4833 22.1583 60.2833 22.95 60 23.5C59.7333 24.05 59.3 24.4417 58.7 24.675C58.1167 24.925 57.275 25.0583 56.175 25.075C54.7583 25.075 53.475 25.0167 52.325 24.9L51.725 22.1C53.0083 22.2667 54.1667 22.35 55.2 22.35C56.0167 22.35 56.5833 22.225 56.9 21.975C57.2167 21.725 57.4167 21.2667 57.5 20.6C57.7167 19.25 57.85 17.8167 57.9 16.3H41.95V3.95H46.9C47.1833 3.21667 47.4417 2.46667 47.675 1.7L51.1 2.125C50.9833 2.625 50.7917 3.23333 50.525 3.95H58.775C58.725 5.66667 58.5833 7.56667 58.35 9.65C58.25 10.4667 58.0917 11.1 57.875 11.55C57.6583 11.9833 57.3083 12.3 56.825 12.5C56.3417 12.7 55.6583 12.8 54.775 12.8C54.075 12.8 53.4583 12.7583 52.925 12.675L52.425 10.15C52.9583 10.2333 53.475 10.275 53.975 10.275C54.425 10.275 54.7333 10.2 54.9 10.05C55.0667 9.88333 55.1917 9.56667 55.275 9.1C55.3917 8.45 55.4833 7.65 55.55 6.7H48.15C49.7 7.73333 51.05 8.7 52.2 9.6L50.375 11.875C49.225 10.875 47.925 9.9 46.475 8.95L48.075 6.7H45.025V13.7ZM39.35 18.05H55.975V20.825H39.35V18.05ZM72.5 3.025H86.05V21.8C86.05 22.6167 85.9417 23.25 85.725 23.7C85.5083 24.1667 85.15 24.4917 84.65 24.675C84.1667 24.875 83.4917 24.975 82.625 24.975C82.2417 24.975 81.6167 24.9417 80.75 24.875L80.225 22.2C80.8917 22.3333 81.5167 22.4 82.1 22.4C82.6167 22.3833 82.9583 22.2833 83.125 22.1C83.2917 21.9167 83.375 21.5333 83.375 20.95V19.75L81.625 20.85C81.5417 20.6833 81.4667 20.525 81.4 20.375C81.3333 20.225 81.2667 20.0917 81.2 19.975C80.95 19.4917 80.6917 18.9833 80.425 18.45C80.1583 17.9167 79.8833 17.375 79.6 16.825C78.7167 18.475 77.825 19.975 76.925 21.325L75.175 19.825V24.975H72.5V8.325C71.8833 9.55833 71.15 10.9167 70.3 12.4C69.45 13.8667 68.8333 14.8583 68.45 15.375L71.325 14.6L71.35 17.475C69.7333 17.7417 67.9583 18.1167 66.025 18.6L64.95 18.9L64.325 16.1C64.575 15.9833 64.7917 15.8333 64.975 15.65C65.175 15.45 65.4167 15.15 65.7 14.75C66.4 13.6667 66.9667 12.7417 67.4 11.975C67.05 12.025 66.3917 12.1333 65.425 12.3C64.8083 12.4167 64.4833 12.4833 64.45 12.5L63.85 9.825C64 9.725 64.1333 9.60833 64.25 9.475C64.3833 9.325 64.5083 9.16667 64.625 9C64.8917 8.6 65.3583 7.68333 66.025 6.25C66.7083 4.8 67.275 3.48333 67.725 2.3L70.35 3.25C69.9333 4.23333 69.3917 5.38333 68.725 6.7C68.0583 8.01667 67.5583 8.95 67.225 9.5L68.975 9.15C69.5417 8.08333 69.9667 7.21667 70.25 6.55L72.5 7.675V3.025ZM83.375 5.725H75.175V7.975L77.15 6.825L79.5 11.15C80.2 9.66667 80.8167 8.21667 81.35 6.8L83.375 7.65V5.725ZM75.175 18.85C76.125 17.45 77.1 15.8083 78.1 13.925C76.8667 11.5917 75.8917 9.78333 75.175 8.5V18.85ZM81.025 14C82.1583 16.15 82.9417 17.6417 83.375 18.475V8.65C82.6917 10.4333 81.9083 12.2167 81.025 14ZM63.825 21.1C64.8083 20.9 66.2333 20.5917 68.1 20.175C69.9833 19.7417 71.15 19.4667 71.6 19.35L71.775 22.35L64.225 24.075L63.825 21.1Z" fill="#4E4E4E"/>
<path d="M24.3726 16.773C23.9001 17.1512 23.1998 16.8146 23.1998 16.2095C23.1998 9.22407 17.797 3.50052 10.9422 2.9893C10.3915 2.94822 9.94219 3.39986 9.94219 3.95215V18.0363C9.94219 19.456 9.29688 20.7989 8.18809 21.6859L6.21144 23.2672C5.4733 23.8577 5.89086 25.0481 6.83613 25.0481H25.3047C25.857 25.0481 26.3047 24.6004 26.3047 24.0481V17.308C26.3047 16.4695 25.3347 16.0033 24.68 16.5271L24.3726 16.773ZM15.5892 15.9639C13.962 15.9639 12.6429 14.6449 12.6429 13.0179C12.6429 11.3907 13.962 10.0716 15.5892 10.0716C17.2162 10.0716 18.5352 11.3907 18.5352 13.0179C18.5352 14.6449 17.2159 15.9639 15.5892 15.9639Z" fill="#4E4E4E"/>
<path d="M5.60602 15.7358C6.05035 16.1799 6.66422 16.4547 7.34207 16.4547H9.08277V8.35303H7.34207C4.22352 8.35303 1.69531 10.881 1.69531 13.9995H4.88715C4.88715 14.6776 5.16195 15.2912 5.60602 15.7358ZM15.5892 11.299C14.6401 11.299 13.8704 12.0685 13.8704 13.0179C13.8704 13.9667 14.6398 14.7364 15.5892 14.7364C16.538 14.7364 17.3078 13.967 17.3078 13.0179C17.3075 12.0685 16.538 11.299 15.5892 11.299ZM15.5892 13.5087C15.5181 13.5087 15.4492 13.4939 15.3877 13.4644C15.5077 13.4078 15.5892 13.2853 15.5892 13.1404C15.5892 12.9364 15.4246 12.7721 15.2209 12.7721C15.2009 12.7721 15.1815 12.7745 15.1618 12.777C15.2452 12.6271 15.4074 12.5265 15.5892 12.5265C15.8591 12.5265 16.08 12.7474 16.08 13.0176C16.08 13.2878 15.8591 13.5087 15.5892 13.5087Z" fill="#4E4E4E"/>
</svg>
