<svg width="113" height="29" viewBox="0 0 113 29" fill="none" xmlns="http://www.w3.org/2000/svg">
<rect x="33" y="20" width="80" height="5" rx="2.5" fill="#FFD4AC"/>
<path d="M47.675 11.55C47.675 14.5333 47.975 16.7083 48.575 18.075C49.175 19.4417 50.3083 20.4083 51.975 20.975C53.6417 21.525 56.35 21.925 60.1 22.175L59.5 25.15C55.3333 24.7333 52.3333 24.2167 50.5 23.6C48.6833 23 47.3583 21.8167 46.525 20.05C45.6917 18.2833 45.275 15.4417 45.275 11.525V5.4C44.975 5.48333 44.6083 5.56667 44.175 5.65V24.575H41.85V6.075C41.6167 6.10833 41.2167 6.16667 40.65 6.25V11.725C40.65 14.6583 40.5083 17.1333 40.225 19.15C39.9417 21.15 39.5333 23.1 39 25L36.525 23.175C37.1583 21.2917 37.6 19.5583 37.85 17.975C38.1167 16.3917 38.25 14.2833 38.25 11.65V3.725C39.7833 3.55833 41.4 3.31667 43.1 3C44.8167 2.66667 46.4333 2.29167 47.95 1.875L48.7 4.575L47.675 4.85V11.55ZM52.225 19.8C51.5083 19.75 50.9417 19.625 50.525 19.425C50.1083 19.225 49.7917 18.8917 49.575 18.425C49.375 17.9583 49.275 17.3083 49.275 16.475V3.325H59V12.95H51.625V15.725C51.625 16.0917 51.6583 16.3667 51.725 16.55C51.7917 16.7333 51.9167 16.8667 52.1 16.95C52.2833 17.0167 52.5833 17.0667 53 17.1C53.55 17.15 54.1083 17.175 54.675 17.175C55.1417 17.175 55.625 17.15 56.125 17.1C56.6083 17.05 56.925 16.95 57.075 16.8C57.225 16.65 57.3083 16.3167 57.325 15.8C57.3583 14.9667 57.375 14.3167 57.375 13.85L59.925 14.375C59.925 14.9917 59.8833 15.7833 59.8 16.75C59.7167 17.8167 59.4667 18.575 59.05 19.025C58.6333 19.475 57.9083 19.7333 56.875 19.8C56.125 19.85 55.35 19.875 54.55 19.875C53.75 19.875 52.975 19.85 52.225 19.8ZM53.075 10.325V5.975H51.625V10.325H53.075ZM55.25 10.325H56.625V5.975H55.25V10.325ZM62 7.65C62.95 7 64 6.11667 65.15 5C66.3167 3.86667 67.2917 2.80833 68.075 1.825L70.4 3.85C69.55 4.9 68.4917 6.04167 67.225 7.275C65.9583 8.50833 64.7583 9.55833 63.625 10.425L62 7.65ZM72.05 3.225H83.975V6.15H72.05V3.225ZM70.375 9.975C69.7917 10.875 69.0417 11.875 68.125 12.975V25.05H65.1V16.275C64.2333 17.1417 63.5083 17.825 62.925 18.325L61.625 15.45C62.775 14.4333 63.9333 13.2667 65.1 11.95C66.2833 10.6167 67.2667 9.36667 68.05 8.2L70.375 9.975ZM84.95 10.325V13.25H81.25V21.225C81.25 22.525 80.9667 23.45 80.4 24C79.8333 24.5667 78.8917 24.8667 77.575 24.9C76.4417 24.9167 75.3 24.8667 74.15 24.75L73.525 21.7C74.7417 21.8667 75.8417 21.95 76.825 21.95C77.325 21.95 77.6583 21.8417 77.825 21.625C78.0083 21.3917 78.1 20.975 78.1 20.375V13.25H71.025V10.325H84.95ZM95.5 3.025H109.05V21.8C109.05 22.6167 108.942 23.25 108.725 23.7C108.508 24.1667 108.15 24.4917 107.65 24.675C107.167 24.875 106.492 24.975 105.625 24.975C105.242 24.975 104.617 24.9417 103.75 24.875L103.225 22.2C103.892 22.3333 104.517 22.4 105.1 22.4C105.617 22.3833 105.958 22.2833 106.125 22.1C106.292 21.9167 106.375 21.5333 106.375 20.95V19.75L104.625 20.85C104.542 20.6833 104.467 20.525 104.4 20.375C104.333 20.225 104.267 20.0917 104.2 19.975C103.95 19.4917 103.692 18.9833 103.425 18.45C103.158 17.9167 102.883 17.375 102.6 16.825C101.717 18.475 100.825 19.975 99.925 21.325L98.175 19.825V24.975H95.5V8.325C94.8833 9.55833 94.15 10.9167 93.3 12.4C92.45 13.8667 91.8333 14.8583 91.45 15.375L94.325 14.6L94.35 17.475C92.7333 17.7417 90.9583 18.1167 89.025 18.6L87.95 18.9L87.325 16.1C87.575 15.9833 87.7917 15.8333 87.975 15.65C88.175 15.45 88.4167 15.15 88.7 14.75C89.4 13.6667 89.9667 12.7417 90.4 11.975C90.05 12.025 89.3917 12.1333 88.425 12.3C87.8083 12.4167 87.4833 12.4833 87.45 12.5L86.85 9.825C87 9.725 87.1333 9.60833 87.25 9.475C87.3833 9.325 87.5083 9.16667 87.625 9C87.8917 8.6 88.3583 7.68333 89.025 6.25C89.7083 4.8 90.275 3.48333 90.725 2.3L93.35 3.25C92.9333 4.23333 92.3917 5.38333 91.725 6.7C91.0583 8.01667 90.5583 8.95 90.225 9.5L91.975 9.15C92.5417 8.08333 92.9667 7.21667 93.25 6.55L95.5 7.675V3.025ZM106.375 5.725H98.175V7.975L100.15 6.825L102.5 11.15C103.2 9.66667 103.817 8.21667 104.35 6.8L106.375 7.65V5.725ZM98.175 18.85C99.125 17.45 100.1 15.8083 101.1 13.925C99.8667 11.5917 98.8917 9.78333 98.175 8.5V18.85ZM104.025 14C105.158 16.15 105.942 17.6417 106.375 18.475V8.65C105.692 10.4333 104.908 12.2167 104.025 14ZM86.825 21.1C87.8083 20.9 89.2333 20.5917 91.1 20.175C92.9833 19.7417 94.15 19.4667 94.6 19.35L94.775 22.35L87.225 24.075L86.825 21.1Z" fill="#4E4E4E"/>
<g clip-path="url(#clip0_276_148)">
<path d="M13.0484 8.93469C16.505 8.93469 16.505 5.87148 16.505 4.68024C16.505 2.55301 14.7767 0.425781 13.0484 0.425781C11.3202 0.425781 9.5919 2.55301 9.5919 4.68024C9.5919 5.87148 9.5919 8.93469 13.0484 8.93469ZM23.4181 8.93469C22.7267 8.93469 21.949 9.10487 21.1713 9.44523C20.9985 9.53032 20.8257 9.78558 20.9121 9.95576C21.1713 10.6365 21.4305 11.4874 21.517 12.4233C21.517 12.5084 21.6034 12.6786 21.6898 12.6786C21.7762 12.7637 21.8626 12.7637 21.949 12.7637H22.0354L25.5784 11.9128C25.8376 11.8277 25.924 11.6575 25.924 11.4023C25.8376 10.5514 25.0599 8.93469 23.4181 8.93469ZM20.48 19.741C20.3072 19.6559 20.0479 19.6559 19.8751 19.8261C19.1838 20.677 18.4061 21.3577 17.4555 21.9533C17.3691 22.0384 17.2827 22.2086 17.2827 22.2937C17.2827 22.4639 17.3691 22.5489 17.4555 22.634C21.517 25.1016 21.8626 25.1016 22.0354 25.1016C22.2947 25.1016 22.4675 24.9314 22.4675 24.6762C22.5539 22.4639 21.7762 20.5919 20.48 19.741ZM14.0854 23.3148C13.3077 23.4849 12.7892 23.4849 12.0115 23.3148C11.8386 23.3148 11.6658 23.3148 11.5794 23.4849C11.493 23.6551 11.4066 23.7402 11.493 23.9104C11.8386 25.0165 12.6164 25.1867 13.0484 25.1867C13.4805 25.1867 14.2582 25.0165 14.6039 23.9104C14.6903 23.7402 14.6039 23.57 14.5175 23.4849C14.4311 23.3148 14.2582 23.2297 14.0854 23.3148ZM6.22177 19.8261C6.04894 19.5708 5.7897 19.5708 5.61688 19.741C4.32067 20.5919 3.54295 22.4639 3.54295 24.6762C3.54295 24.9314 3.71578 25.1016 3.97502 25.1016C4.14785 25.1016 4.4935 25.1016 8.55494 22.634C8.64135 22.5489 8.72776 22.3788 8.72776 22.2937C8.72776 22.1235 8.64135 22.0384 8.55494 21.9533C7.6908 21.3577 6.82667 20.5919 6.22177 19.8261ZM4.06143 12.7637C4.14785 12.7637 4.23426 12.7637 4.32067 12.6786C4.40709 12.5935 4.4935 12.5084 4.4935 12.4233C4.57992 11.4874 4.83916 10.7216 5.0984 9.95576C5.18481 9.78558 5.0984 9.53032 4.83916 9.44523C4.06143 9.10487 3.28371 8.93469 2.59241 8.93469C0.950549 8.93469 0.172827 10.5514 0 11.4023C0 11.6575 0.0864135 11.8277 0.345654 11.9128L3.88861 12.7637H4.06143ZM14.9495 16.5927L15.9865 14.4655L14.9495 12.3383H11.1473L10.1104 14.4655L11.1473 16.5927H14.9495ZM16.7642 14.04H20.8257C20.7392 11.2321 20.0479 9.36014 18.5789 8.16889L15.7273 11.9128L16.7642 14.04ZM10.3696 11.9979L7.51797 8.16889C6.04894 9.36014 5.35764 11.2321 5.27122 14.04H9.33266L10.3696 11.9979Z" fill="#4E4E4E"/>
<path d="M15.036 11.4874L17.8876 7.65844L17.3691 7.40317C17.2827 7.31808 17.1099 7.31808 17.0235 7.40317C16.9371 7.40317 16.8506 7.48826 16.7642 7.65844C16.0729 9.10495 14.8631 9.78567 12.962 9.78567C11.0609 9.78567 9.85116 9.10495 9.15985 7.65844L8.90061 7.40317H8.55495C8.55495 7.48826 8.38213 7.57335 8.2093 7.65844L11.0609 11.4874H15.036ZM11.1474 17.4437L9.24626 21.2727C10.8017 22.2087 12.3571 22.549 13.0485 22.549C13.7398 22.549 15.3816 22.2087 16.8506 21.2727L14.9496 17.4437H11.1474ZM20.8257 14.891H16.7642L15.7273 17.0182L17.6284 20.7622C19.2702 19.5709 20.6528 17.699 20.8257 14.891ZM5.27124 14.891C5.44407 17.699 6.82668 19.5709 8.46854 20.7622L10.3696 17.0182L9.24626 14.891H5.27124Z" fill="#4E4E4E"/>
</g>
<defs>
<clipPath id="clip0_276_148">
<rect width="26" height="25.5273" fill="white"/>
</clipPath>
</defs>
</svg>
