<svg width="110" height="29" viewBox="0 0 110 29" fill="none" xmlns="http://www.w3.org/2000/svg">
<rect x="30" y="20" width="80" height="5" rx="2.5" fill="#FFACAC"/>
<path d="M56.8 7.45H50.625V9.025H55.95V22.05C55.95 23.0667 55.7917 23.8 55.475 24.25C55.1583 24.7 54.6417 24.9417 53.925 24.975C53.325 24.9917 52.6333 24.9583 51.85 24.875L51.275 22.125C51.7083 22.225 52.1333 22.275 52.55 22.275C52.8167 22.275 53 22.1833 53.1 22C53.2167 21.8 53.275 21.4917 53.275 21.075V20.025H50.625V24.2H47.975V20.025H45.275V24.9H42.6V9.025H47.975V7.45H42.4V4.75H47.975V2.05H50.625V4.75H52.9C52.2667 4.03333 51.7417 3.475 51.325 3.075L53.25 1.475C54.2167 2.44167 54.975 3.275 55.525 3.975L54.625 4.75H56.8V7.45ZM41.25 21.975H34.725V4.075H41.25V21.975ZM38.775 7H37.2V19.05H38.775V7ZM47.975 13.425V11.65H45.275V13.425H47.975ZM53.275 13.425V11.65H50.625V13.425H53.275ZM45.275 15.75V17.65H47.975V15.75H45.275ZM50.625 15.75V17.65H53.275V15.75H50.625ZM71.75 4.85C70.15 5.13333 68.1917 5.39167 65.875 5.625C63.5583 5.84167 61.4417 6 59.525 6.1L59.35 3.375C61.3 3.29167 63.375 3.14167 65.575 2.925C67.775 2.70833 69.6917 2.45 71.325 2.15L71.75 4.85ZM82.05 17.45C82.05 17.9667 82.0333 18.625 82 19.425C81.9667 20.2083 81.9333 20.8667 81.9 21.4C81.85 22.5667 81.575 23.4 81.075 23.9C80.5917 24.4 79.7833 24.6917 78.65 24.775C78.35 24.8083 77.8917 24.825 77.275 24.825C76.6583 24.825 76.2 24.8083 75.9 24.775C74.7333 24.675 73.9167 24.3417 73.45 23.775C72.9833 23.225 72.75 22.2917 72.75 20.975V2.375H75.65V20.525C75.65 21.0083 75.7083 21.35 75.825 21.55C75.9583 21.7333 76.1833 21.8417 76.5 21.875C76.8667 21.9083 77.1333 21.925 77.3 21.925C77.4833 21.925 77.7417 21.9083 78.075 21.875C78.475 21.8083 78.7417 21.675 78.875 21.475C79.025 21.275 79.1 20.925 79.1 20.425L79.2 16.875L82.05 17.45ZM71.8 6.475C71.5667 7.05833 71.2667 7.74167 70.9 8.525C70.55 9.30833 70.225 9.98333 69.925 10.55H71.225V13.075L67.125 16.175V16.225L71.45 15.525L71.525 18.15C70.4583 18.3 68.9917 18.5333 67.125 18.85V21.75C67.125 22.8 66.8833 23.5583 66.4 24.025C65.9333 24.5083 65.1417 24.7583 64.025 24.775C63.2083 24.8083 62.4 24.7833 61.6 24.7L61.05 22.075C61.8667 22.1917 62.5667 22.25 63.15 22.25C63.5667 22.2333 63.8417 22.15 63.975 22C64.125 21.8333 64.2 21.5167 64.2 21.05V19.35C62.4167 19.65 60.7 19.9583 59.05 20.275L58.925 17.625L64.2 16.75V15.025L67.025 13.15H59.925V10.55H69.575L67.675 9.7C68.525 8.03333 69.175 6.66667 69.625 5.6L71.8 6.475ZM64.85 9.95C64.7 9.5 64.5 8.93333 64.25 8.25C64.0167 7.55 63.8167 6.98333 63.65 6.55L65.925 5.875C66.3083 6.825 66.7333 7.95833 67.2 9.275L64.85 9.95ZM60.95 10.45C60.4667 9.08333 60.025 7.95833 59.625 7.075L61.9 6.375C62.6 7.99167 63.0583 9.09167 63.275 9.675L60.95 10.45ZM92.5 3.025H106.05V21.8C106.05 22.6167 105.942 23.25 105.725 23.7C105.508 24.1667 105.15 24.4917 104.65 24.675C104.167 24.875 103.492 24.975 102.625 24.975C102.242 24.975 101.617 24.9417 100.75 24.875L100.225 22.2C100.892 22.3333 101.517 22.4 102.1 22.4C102.617 22.3833 102.958 22.2833 103.125 22.1C103.292 21.9167 103.375 21.5333 103.375 20.95V19.75L101.625 20.85C101.542 20.6833 101.467 20.525 101.4 20.375C101.333 20.225 101.267 20.0917 101.2 19.975C100.95 19.4917 100.692 18.9833 100.425 18.45C100.158 17.9167 99.8833 17.375 99.6 16.825C98.7167 18.475 97.825 19.975 96.925 21.325L95.175 19.825V24.975H92.5V8.325C91.8833 9.55833 91.15 10.9167 90.3 12.4C89.45 13.8667 88.8333 14.8583 88.45 15.375L91.325 14.6L91.35 17.475C89.7333 17.7417 87.9583 18.1167 86.025 18.6L84.95 18.9L84.325 16.1C84.575 15.9833 84.7917 15.8333 84.975 15.65C85.175 15.45 85.4167 15.15 85.7 14.75C86.4 13.6667 86.9667 12.7417 87.4 11.975C87.05 12.025 86.3917 12.1333 85.425 12.3C84.8083 12.4167 84.4833 12.4833 84.45 12.5L83.85 9.825C84 9.725 84.1333 9.60833 84.25 9.475C84.3833 9.325 84.5083 9.16667 84.625 9C84.8917 8.6 85.3583 7.68333 86.025 6.25C86.7083 4.8 87.275 3.48333 87.725 2.3L90.35 3.25C89.9333 4.23333 89.3917 5.38333 88.725 6.7C88.0583 8.01667 87.5583 8.95 87.225 9.5L88.975 9.15C89.5417 8.08333 89.9667 7.21667 90.25 6.55L92.5 7.675V3.025ZM103.375 5.725H95.175V7.975L97.15 6.825L99.5 11.15C100.2 9.66667 100.817 8.21667 101.35 6.8L103.375 7.65V5.725ZM95.175 18.85C96.125 17.45 97.1 15.8083 98.1 13.925C96.8667 11.5917 95.8917 9.78333 95.175 8.5V18.85ZM101.025 14C102.158 16.15 102.942 17.6417 103.375 18.475V8.65C102.692 10.4333 101.908 12.2167 101.025 14ZM83.825 21.1C84.8083 20.9 86.2333 20.5917 88.1 20.175C89.9833 19.7417 91.15 19.4667 91.6 19.35L91.775 22.35L84.225 24.075L83.825 21.1Z" fill="#4E4E4E"/>
<path d="M23.2917 9.12484C23.2917 3.1665 18.4167 1.5415 13 1.5415C7.58336 1.5415 2.70835 3.1665 2.70835 9.12484C2.03404 9.34351 1.45327 9.78336 1.06005 10.3732C0.666831 10.963 0.484188 11.6683 0.541688 12.3748C0.531653 13.1427 0.72728 13.8992 1.10827 14.566C1.48926 15.2327 2.04173 15.7853 2.70835 16.1665C2.70835 22.1248 4.87502 26.4582 13 26.4582C21.125 26.4582 23.2917 22.1248 23.2917 16.1665C23.9583 15.7853 24.5108 15.2327 24.8918 14.566C25.2728 13.8992 25.4684 13.1427 25.4584 12.3748C25.5159 11.6683 25.3332 10.963 24.94 10.3732C24.5468 9.78336 23.966 9.34351 23.2917 9.12484V9.12484ZM13.0054 23.7498H12.9924C11.063 23.7498 8.83677 23.2288 7.94194 21.3665C7.91961 21.3197 7.91117 21.2675 7.91762 21.2161C7.92408 21.1647 7.94515 21.1162 7.97834 21.0764C8.01153 21.0366 8.05545 21.0071 8.10487 20.9915C8.1543 20.9759 8.20716 20.9749 8.25719 20.9884C9.80498 21.395 11.3998 21.595 13 21.5832C14.6003 21.5945 16.1951 21.3941 17.7429 20.9873C17.7929 20.9738 17.8457 20.9749 17.8952 20.9905C17.9446 21.006 17.9885 21.0355 18.0217 21.0753C18.0549 21.1151 18.076 21.1636 18.0824 21.215C18.0889 21.2665 18.0804 21.3186 18.0581 21.3654C17.1622 23.2298 14.9349 23.7498 13.0054 23.7498ZM18.1437 14.1699C18.0069 14.2175 17.881 14.2921 17.7735 14.3892C17.666 14.4864 17.5791 14.6041 17.5178 14.7354C17.4566 14.8667 17.4224 15.0089 17.4171 15.1537C17.4119 15.2985 17.4357 15.4428 17.4872 15.5783C17.8873 16.4377 18.1861 17.3408 18.3777 18.2693C18.3869 18.3301 18.3752 18.3923 18.3445 18.4456C18.3138 18.4989 18.2659 18.5402 18.2087 18.5628C16.5387 19.1613 14.7737 19.4506 13 19.4165C11.2262 19.4492 9.46123 19.1588 7.79136 18.5596C7.73389 18.5373 7.68577 18.496 7.65502 18.4426C7.62428 18.3892 7.61275 18.3269 7.62236 18.266C7.81293 17.3373 8.1118 16.4341 8.51285 15.575C8.56437 15.4396 8.58819 15.2952 8.58293 15.1505C8.57766 15.0057 8.54341 14.8634 8.4822 14.7321C8.42099 14.6008 8.33407 14.4831 8.22657 14.386C8.11907 14.2889 7.99318 14.2143 7.85636 14.1667C7.123 13.8595 6.50537 13.3286 6.09159 12.6496C5.67781 11.9707 5.489 11.1784 5.55211 10.3858C5.55297 9.33281 5.97189 8.3232 6.7168 7.5789C7.46171 6.8346 8.47166 6.4165 9.52469 6.4165H16.4754C17.529 6.4165 18.5394 6.83504 19.2844 7.58005C20.0294 8.32505 20.4479 9.33549 20.4479 10.3891C20.511 11.1817 20.3222 11.9739 19.9085 12.6529C19.4947 13.3318 18.877 13.8627 18.1437 14.1699V14.1699Z" fill="#4E4E4E"/>
<path d="M8.39581 10.7502C8.39581 10.928 8.43084 11.1041 8.49889 11.2684C8.56695 11.4327 8.66669 11.582 8.79244 11.7077C8.91819 11.8334 9.06747 11.9332 9.23176 12.0013C9.39606 12.0693 9.57215 12.1043 9.74998 12.1043C9.92781 12.1043 10.1039 12.0693 10.2682 12.0013C10.4325 11.9332 10.5818 11.8334 10.7075 11.7077C10.8333 11.582 10.933 11.4327 11.0011 11.2684C11.0691 11.1041 11.1041 10.928 11.1041 10.7502C11.1041 10.5723 11.0691 10.3962 11.0011 10.2319C10.933 10.0677 10.8333 9.91837 10.7075 9.79262C10.5818 9.66688 10.4325 9.56713 10.2682 9.49908C10.1039 9.43102 9.92781 9.396 9.74998 9.396C9.57215 9.396 9.39606 9.43102 9.23176 9.49908C9.06747 9.56713 8.91819 9.66688 8.79244 9.79262C8.66669 9.91837 8.56695 10.0677 8.49889 10.2319C8.43084 10.3962 8.39581 10.5723 8.39581 10.7502V10.7502Z" fill="#4E4E4E"/>
<path d="M14.8958 10.7502C14.8958 10.928 14.9308 11.1041 14.9989 11.2684C15.0669 11.4327 15.1667 11.582 15.2924 11.7077C15.4182 11.8334 15.5675 11.9332 15.7318 12.0013C15.8961 12.0693 16.0721 12.1043 16.25 12.1043C16.4278 12.1043 16.6039 12.0693 16.7682 12.0013C16.9325 11.9332 17.0818 11.8334 17.2075 11.7077C17.3333 11.582 17.433 11.4327 17.5011 11.2684C17.5691 11.1041 17.6041 10.928 17.6041 10.7502C17.6041 10.5723 17.5691 10.3962 17.5011 10.2319C17.433 10.0677 17.3333 9.91837 17.2075 9.79262C17.0818 9.66688 16.9325 9.56713 16.7682 9.49908C16.6039 9.43102 16.4278 9.396 16.25 9.396C16.0721 9.396 15.8961 9.43102 15.7318 9.49908C15.5675 9.56713 15.4182 9.66688 15.2924 9.79262C15.1667 9.91837 15.0669 10.0677 14.9989 10.2319C14.9308 10.3962 14.8958 10.5723 14.8958 10.7502V10.7502Z" fill="#4E4E4E"/>
<path d="M11.9957 15.0075C11.9507 14.8724 11.8795 14.7474 11.7862 14.6398C11.6928 14.5322 11.5792 14.444 11.4518 14.3802C11.3244 14.3165 11.1857 14.2785 11.0436 14.2684C10.9015 14.2582 10.7588 14.2762 10.6237 14.3212C10.4885 14.3663 10.3636 14.4375 10.2559 14.5308C10.1483 14.6241 10.0601 14.7377 9.99637 14.8651C9.93265 14.9925 9.89464 15.1312 9.88452 15.2733C9.8744 15.4154 9.89236 15.5581 9.93739 15.6933L10.2082 16.5058C10.2532 16.6409 10.3245 16.7659 10.4178 16.8735C10.5111 16.9812 10.6247 17.0694 10.7521 17.1331C10.8795 17.1968 11.0182 17.2348 11.1603 17.2449C11.3024 17.2551 11.4451 17.2371 11.5803 17.1921C11.7154 17.147 11.8404 17.0758 11.948 16.9825C12.0556 16.8892 12.1438 16.7756 12.2076 16.6482C12.2713 16.5208 12.3093 16.3821 12.3194 16.24C12.3295 16.0979 12.3116 15.9552 12.2666 15.82L11.9957 15.0075ZM15.3736 14.325C15.1012 14.2345 14.804 14.2557 14.5472 14.3841C14.2905 14.5124 14.0952 14.7374 14.0042 15.0097L13.7334 15.8222C13.6884 15.9573 13.6704 16.1 13.6805 16.2421C13.6906 16.3842 13.7286 16.5229 13.7924 16.6504C13.8561 16.7778 13.9443 16.8914 14.0519 16.9847C14.1596 17.078 14.2845 17.1492 14.4197 17.1942C14.5548 17.2393 14.6975 17.2572 14.8396 17.2471C14.9817 17.237 15.1204 17.199 15.2478 17.1353C15.3752 17.0715 15.4888 16.9833 15.5822 16.8757C15.6755 16.7681 15.7467 16.6431 15.7917 16.5079L16.0626 15.6954C16.1075 15.5602 16.1253 15.4175 16.1149 15.2754C16.1046 15.1333 16.0664 14.9946 16.0024 14.8673C15.9384 14.74 15.8499 14.6266 15.742 14.5335C15.6341 14.4405 15.5089 14.3696 15.3736 14.325V14.325Z" fill="#4E4E4E"/>
</svg>
